<svg width="315" height="318" viewBox="0 0 315 318" fill="none" xmlns="http://www.w3.org/2000/svg">
<path d="M230.361 313.358C227.942 313.358 225.577 312.162 224.168 309.956C222.015 306.554 223.025 302.035 226.427 299.882C271.294 271.442 298.086 223.174 298.086 170.785C298.086 85.9966 227.73 17.0226 141.213 17.0226C90.4995 17.0226 42.6829 41.2366 13.3124 81.7705C10.9469 85.0398 6.37519 85.784 3.1059 83.3918C-0.163385 81.0262 -0.907615 76.4546 1.48455 73.1853C33.5927 28.8771 85.8481 2.40387 141.24 2.40387C235.783 2.40387 312.731 77.943 312.731 170.785C312.731 228.197 283.387 281.091 234.268 312.242C233.046 313.013 231.69 313.385 230.361 313.385V313.358Z" fill="#414042"/>
<path d="M245.857 259.881C243.917 259.881 242.056 259.216 240.541 257.967C238.813 256.558 237.75 254.538 237.511 252.332C237.298 250.1 237.963 247.92 239.372 246.192C250.641 232.451 258.881 216.397 263.16 199.784C265.446 190.987 266.749 182.269 267.014 173.869C267.2 164.673 266.509 155.875 264.994 147.689C264.596 145.482 265.047 143.276 266.323 141.416C267.599 139.582 269.486 138.333 271.692 137.934C272.197 137.827 272.729 137.801 273.234 137.801C277.247 137.801 280.729 140.671 281.447 144.632C283.175 153.908 283.946 163.902 283.733 174.295C283.414 184.023 281.952 194.017 279.347 203.984C274.457 222.935 265.101 241.222 252.289 256.824C250.695 258.765 248.329 259.881 245.83 259.881H245.857Z" fill="#008345"/>
<path d="M267.891 134.877C264.435 134.877 261.272 132.697 260.05 129.455L257.897 123.714C257.551 122.757 257.206 121.88 256.887 121.268L252.315 112.019C251.571 110.663 250.534 109.015 249.444 107.287C248.78 106.224 248.116 105.188 247.478 104.124C246.255 101.971 244.74 100.031 243.145 97.9579L242.241 96.7618C239.158 92.4028 235.597 88.6817 231.822 84.7213L229.882 82.7013L222.759 76.3487C221.881 75.5248 220.978 74.8603 220.021 74.1426L215.449 70.7936C213.642 69.4646 212.472 67.5243 212.127 65.3182C211.781 63.1121 212.339 60.906 213.668 59.0986C215.237 56.9722 217.762 55.6964 220.42 55.6964C222.2 55.6964 223.928 56.2546 225.363 57.3178L229.882 60.6402C231.211 61.5971 232.699 62.6868 234.135 64.0956L241.736 70.8999L243.916 73.1858C247.956 77.4119 252.129 81.771 255.717 86.8742L256.408 87.7514C258.295 90.1967 260.236 92.7217 261.937 95.6987C262.389 96.4429 262.947 97.3466 263.532 98.2503C264.807 100.27 266.03 102.211 267.2 104.364L271.692 113.454C272.542 115.022 273.1 116.564 273.605 117.919L275.732 123.607C277.353 127.913 275.174 132.751 270.841 134.372C269.884 134.717 268.901 134.904 267.891 134.904V134.877Z" fill="#0DA89E"/>
<path d="M202.85 61.7555C201.548 61.7555 200.272 61.4631 199.103 60.8518C183.208 52.8513 165.453 48.2265 147.751 47.5088C145.518 47.4291 143.445 46.4722 141.93 44.8243C140.415 43.1764 139.618 41.05 139.724 38.8173C139.91 34.3254 143.605 30.7903 148.123 30.7903H148.389C168.483 31.6142 188.604 36.8238 206.598 45.9141C210.718 47.9873 212.392 53.0374 210.293 57.1572C208.857 60.0012 205.987 61.7555 202.824 61.7555H202.85Z" fill="#20A1DB"/>
<path d="M90.3386 57.7439C86.9896 57.7439 83.9595 55.7504 82.6305 52.6672C80.8231 48.4144 82.79 43.4972 87.0427 41.6898C92.651 39.2976 98.8175 37.2244 106.472 35.1246C113.702 33.3438 120.347 32.1211 126.832 31.4035C127.151 31.3769 127.444 31.3503 127.736 31.3503C132.015 31.3503 135.577 34.5665 136.055 38.7926C136.56 43.3909 133.238 47.5107 128.64 48.0157C122.925 48.6536 117.024 49.7168 110.672 51.285C103.921 53.1456 98.4719 54.9796 93.5813 57.0528C92.5447 57.5046 91.4284 57.7173 90.312 57.7173L90.3386 57.7439Z" fill="#BD9A5F"/>
<path d="M49.22 84.7212C46.9341 84.7212 44.8078 83.8175 43.213 82.1696C39.9968 78.8472 40.0766 73.5578 43.399 70.3417C50.6287 63.3247 58.7886 57.0253 67.6396 51.6031C68.9686 50.8057 70.457 50.3804 71.9987 50.3804C74.949 50.3804 77.607 51.8689 79.1486 54.3674C81.5673 58.3011 80.3181 63.4576 76.3843 65.8763C68.5699 70.6606 61.3934 76.2158 55.0409 82.3557C53.4727 83.8707 51.3995 84.7212 49.22 84.7212Z" fill="#EB1B25"/>
</svg>
