<svg xmlns="http://www.w3.org/2000/svg" width="24" height="24" viewBox="0 0 24 24"><path d="M21.86 21.43c.54 0 1-.18 1.4-.53l-6.8-6.8-.47.34c-.5.37-.92.67-1.24.87-.32.21-.74.43-1.27.65s-1.01.33-1.47.33H12c-.46 0-.95-.11-1.48-.33s-.95-.44-1.26-.65a30.78 30.78 0 01-1.71-1.21l-6.8 6.8c.4.35.86.53 1.4.53h19.72zM1.35 9.82C.85 9.48.4 9.09 0 8.65V19l6-6c-1.2-.83-2.75-1.9-4.65-3.18zM22.66 9.82c-1.82 1.23-3.37 2.3-4.65 3.19L24 19V8.65c-.38.43-.83.82-1.34 1.17z"/><path d="M21.86 2.57H2.14c-.68 0-1.21.23-1.58.7A2.7 2.7 0 000 5c0 .56.25 1.17.74 1.83S1.75 8 2.3 8.38a595.46 595.46 0 004.9 3.41l1.36.95.2.14.37.27.72.5.7.44c.27.16.53.28.77.36s.46.12.67.12H12c.2 0 .43-.04.67-.12.24-.08.5-.2.77-.36a13.88 13.88 0 001.42-.94 46.83 46.83 0 01.57-.41l1.36-.94c1.1-.78 2.74-1.91 4.9-3.42.66-.45 1.2-1 1.64-1.64S24 5.42 24 4.7c0-.58-.21-1.09-.64-1.5a2.07 2.07 0 00-1.5-.64z"/></svg>