<svg width="40" height="40" viewBox="0 0 40 40" fill="none" xmlns="http://www.w3.org/2000/svg">
<g clip-path="url(#clip0_1664_28294)">
<path d="M20 4.68677C19.3528 4.68677 18.8281 5.21145 18.8281 5.85864C18.8281 6.50583 19.3528 7.03052 20 7.03052C23.8777 7.03052 27.0324 10.1847 27.0324 14.0618C27.0324 14.709 27.5571 15.2336 28.2043 15.2336C28.8515 15.2336 29.3762 14.709 29.3762 14.0618C29.3762 8.89239 25.1701 4.68677 20 4.68677Z" fill="#BD9A5F"/>
<path d="M16.9815 0.314897C11.6869 1.42123 7.39397 5.6731 6.26437 11.0005C5.31054 15.4991 6.48593 20.0155 9.48913 23.3917C10.9572 25.0419 11.7991 27.2203 11.7991 29.3743V31.718C11.7991 33.2774 12.8199 34.6022 14.2282 35.061C14.6913 37.7973 17.0663 39.9992 20.0022 39.9992C22.9373 39.9992 25.3129 37.798 25.7762 35.061C27.1844 34.6022 28.2053 33.2774 28.2053 31.7179V29.3742C28.2053 27.216 29.05 25.0638 30.5836 23.3141C32.8284 20.7532 34.0647 17.4672 34.0647 14.0618C34.0647 5.18951 25.9437 -1.55745 16.9815 0.314897ZM20.0022 37.6555C18.4958 37.6555 17.175 36.619 16.6873 35.2258H23.317C22.8294 36.619 21.5086 37.6555 20.0022 37.6555ZM25.8616 31.718C25.8616 32.3642 25.3358 32.8899 24.6897 32.8899H15.3147C14.6685 32.8899 14.1428 32.3642 14.1428 31.718V30.5461H25.8616V31.718ZM28.8211 21.7694C27.1867 23.634 26.1812 25.8824 25.926 28.2024H14.0786C13.8237 25.8811 12.8208 23.6106 11.2405 21.834C8.73749 19.0202 7.75944 15.2487 8.55718 11.4867C9.48835 7.09497 13.0665 3.5274 17.4609 2.60919C24.9628 1.04146 31.7209 6.67521 31.7209 14.0618C31.7209 16.8986 30.6911 19.6359 28.8211 21.7694Z" fill="#BD9A5F"/>
<path d="M3.51562 14.0615H1.17188C0.524687 14.0615 0 14.5862 0 15.2334C0 15.8806 0.524687 16.4053 1.17188 16.4053H3.51562C4.16281 16.4053 4.6875 15.8806 4.6875 15.2334C4.6875 14.5862 4.16281 14.0615 3.51562 14.0615Z" fill="#BD9A5F"/>
<path d="M4.00055 8.20241L2.34328 6.54515C1.8857 6.08749 1.14367 6.08749 0.686016 6.54515C0.228359 7.0028 0.228359 7.74476 0.686016 8.20241L2.34328 9.85968C2.80086 10.3173 3.54289 10.3174 4.00055 9.85968C4.4582 9.40202 4.4582 8.66007 4.00055 8.20241Z" fill="#BD9A5F"/>
<path d="M4.00055 20.6076C3.54289 20.15 2.80086 20.15 2.34328 20.6076L0.686016 22.2649C0.228359 22.7226 0.228359 23.4645 0.686016 23.9222C1.14359 24.3798 1.88563 24.3799 2.34328 23.9222L4.00055 22.2649C4.4582 21.8073 4.4582 21.0653 4.00055 20.6076Z" fill="#BD9A5F"/>
<path d="M38.8281 14.0615H36.4844C35.8372 14.0615 35.3125 14.5862 35.3125 15.2334C35.3125 15.8806 35.8372 16.4053 36.4844 16.4053H38.8281C39.4753 16.4053 40 15.8806 40 15.2334C40 14.5862 39.4753 14.0615 38.8281 14.0615Z" fill="#BD9A5F"/>
<path d="M39.313 6.54515C38.8555 6.08749 38.1134 6.08749 37.6558 6.54515L35.9985 8.20241C35.5409 8.66007 35.5409 9.40202 35.9985 9.85968C36.4561 10.3173 37.1981 10.3173 37.6558 9.85968L39.313 8.20241C39.7707 7.74476 39.7707 7.0028 39.313 6.54515Z" fill="#BD9A5F"/>
<path d="M39.313 22.2649L37.6558 20.6076C37.1982 20.15 36.4562 20.15 35.9985 20.6076C35.5409 21.0653 35.5409 21.8073 35.9985 22.2649L37.6558 23.9222C38.1134 24.3798 38.8554 24.3798 39.313 23.9222C39.7707 23.4645 39.7707 22.7226 39.313 22.2649Z" fill="#BD9A5F"/>
</g>
<defs>
<clipPath id="clip0_1664_28294">
<rect width="40" height="40" fill="white"/>
</clipPath>
</defs>
</svg>
