<svg width="1100" height="716" viewBox="0 0 1100 716" fill="none" xmlns="http://www.w3.org/2000/svg">
<path d="M698.076 136.826C696.682 137.701 694.98 138.333 693.942 139.517C691.332 142.467 691.64 145.985 693.245 149.244C694.704 152.21 697.363 151.594 700.119 151.221C701.432 151.043 703.491 152.162 704.285 153.329C706.133 156.085 708.354 157.301 711.597 156.814C712.407 156.685 713.25 156.652 714.077 156.701C721.583 157.025 728.586 156.766 734.876 151.157C738.945 147.541 744.522 145.888 750.131 149.86C751.477 150.816 753.925 150.816 755.708 150.443C762.063 149.146 765.824 152.032 766.262 158.987C761.447 158.987 756.616 158.922 751.801 159.003C748.17 159.068 744.538 159.327 742.366 163.007C742.058 163.526 741.328 163.834 740.745 164.109C734.698 166.995 728.538 169.654 722.637 172.831C720.724 173.869 719.346 176.122 718.065 178.035C716.006 181.115 714.239 184.39 711.824 188.459C710.964 186.027 710.381 184.422 709.813 182.817C707.787 177.143 704.691 173.139 697.963 172.296C690.441 171.372 683.032 169.508 675.591 167.935C669.625 166.671 667.177 163.574 666.788 157.576C666.642 155.307 667.404 154.107 669.69 154.042C675.04 153.864 678.898 151.367 682.27 147.185C685.367 143.359 689.355 140.23 693.067 136.923C694.024 136.08 695.418 135.707 696.617 135.123C697.104 135.675 697.574 136.242 698.06 136.793L698.076 136.826Z" fill="#DDDDDD"/>
<path class="tx bg" d="M335.654 532.06C336.902 531.979 338.167 531.719 339.383 531.833C352.595 533.033 365.807 534.216 379.003 535.562C387.579 536.437 396.106 537.637 404.666 538.593C410.956 539.306 412.253 538.496 412.61 532.4C413.323 520.339 413.55 508.245 414.198 496.184C414.62 488.03 415.22 479.859 416.063 471.737C417.651 456.288 419.548 440.887 421.153 425.437C421.493 422.211 422.774 421.352 425.903 421.693C442.131 423.427 458.358 425.048 474.602 426.572C477.536 426.848 478.201 428.047 477.974 430.82C476.969 443.562 476.288 456.336 475.202 469.062C474.861 473.018 476.175 475.336 479.725 476.698C490.279 480.751 499.795 487.349 511.207 489.31C512.958 489.602 514.482 491.061 516.168 491.888C518.47 493.007 520.724 494.401 523.155 495.033C527.127 496.054 531.31 496.249 535.265 497.303C544.652 499.815 553.811 500.302 562.954 496.233C570.865 492.715 578.566 493.525 586.218 497.627C589.152 499.199 591.973 500.367 595.328 500.999C597.955 501.485 598.506 502.669 598.457 505.181C598.263 513.936 597.906 522.365 599.381 530.876C600.905 539.647 602.98 543.619 606.32 552C607.682 555.437 607.584 562.035 606.223 565.228C604.115 570.157 604.099 575.782 603.369 581.148C602.737 585.817 603.24 590.632 603.24 596.419C599.997 594.668 597.031 593.242 594.258 591.507C592.783 590.583 591.535 589.205 590.352 587.876C587.644 584.86 584.986 584.634 581.857 587.373C580.576 588.492 578.631 588.848 577.139 589.773C576.069 590.421 575.243 591.458 574.302 592.318C575.161 593.242 575.907 594.312 576.912 595.041C579.23 596.727 581.938 597.943 583.98 599.888C587.012 602.774 586.282 605.562 582.846 607.913C579.295 610.345 575.713 612.89 572.665 615.905C567.364 621.19 561.771 625.47 553.86 625.519C552.384 625.519 550.893 626.054 549.434 626.394C546.597 627.059 545.349 628.81 545.511 631.776C545.738 635.732 543.452 638.147 539.367 638.472C537.859 638.585 536.319 638.358 534.86 638.601C533.725 638.796 531.699 639.606 531.731 639.963C532.266 644.924 525.117 648.344 528.927 653.953C529.17 654.326 528.456 655.656 527.873 656.207C526.884 657.147 525.684 657.844 524.533 658.59C518.438 662.546 518.648 662.675 521.291 669.192C522.604 672.418 522.539 676.179 523.317 679.649C524.485 684.836 525.846 689.975 527.37 696.103C523.561 695.179 520.156 694.806 517.108 693.526C509.667 690.413 502.372 686.928 495.045 683.523C489.76 681.075 486.825 676.812 486.064 671.089C485.496 666.874 485.366 662.562 484.442 658.428C483.891 655.948 482.821 652.705 480.924 651.57C476.547 648.96 474.586 644.972 472.414 640.822C466.594 629.782 461.114 618.515 454.581 607.913C446.962 595.528 434.657 591.799 420.845 592.609C415.641 592.918 411.88 596.241 408.897 600.537C406.887 603.439 404.731 606.405 402.056 608.643C400.824 609.664 397.695 609.826 396.269 608.967C391 605.789 385.407 602.677 381.257 598.267C377.561 594.344 374.74 589.043 373.086 583.839C367.85 567.417 358.123 554.075 346.159 542.16C342.884 538.901 339.058 536.226 335.476 533.276C335.541 532.87 335.605 532.465 335.67 532.06H335.654Z" fill="#DDDDDD"/>
<path class="text" data-loc="tx" d="M490.327 550.606H485.674V547.898H498.271V550.606H493.634V563.186H490.327V550.606Z" fill="#2D2D2D"/>
<path class="text" data-loc="tx" d="M509.554 563.186L506.279 557.804H506.263L502.907 563.186H499.341L504.431 555.485L499.487 547.898H503.329L506.425 552.973H506.441L509.635 547.898H513.137L508.208 555.194L513.364 563.202H509.538L509.554 563.186Z" fill="#2D2D2D"/>
<path d="M705.096 590.032C702.924 594.912 697.817 597.489 700.946 602.434C703.053 605.773 706.36 608.367 708.743 611.998C706.263 610.475 703.702 609.064 701.319 607.411C699.616 606.243 698.336 604.347 696.536 603.487C694.461 602.499 691.981 601.866 689.76 602.061C689.128 602.126 688.82 605.644 688.35 607.67H664.535C663.984 598.089 656.413 597.035 650.237 594.912C648.437 594.296 645.081 595.884 643.476 597.505C641.061 599.921 639.342 601.202 635.808 599.451C631.415 597.278 626.73 595.511 621.996 594.279C619.386 593.598 616.387 594.247 613.599 594.587C612.334 594.749 611.167 595.641 609.06 596.614C609.06 589.87 608.395 583.791 609.238 577.922C610.129 571.713 613.096 565.796 613.858 559.587C614.215 556.62 614.442 552.438 612.302 550.055C608.719 546.05 607.73 541.252 606.433 536.761C604.78 531.022 604.845 524.83 603.758 518.896C603.191 515.784 604.488 514.357 607.049 514.341C616.987 514.308 625.871 514.552 635.808 514.73C643.12 514.86 650.447 515.2 657.759 515.168C660.823 515.168 662.038 515.832 662.265 519.237C662.476 522.414 663.579 525.754 665.102 528.591C666.464 531.136 666.351 532.627 664.486 534.751C657.921 542.176 654.954 551.076 654.451 560.9C654.273 564.434 655.748 565.974 659.315 565.861C669.123 565.553 678.931 565.423 688.739 565.034C691.268 564.937 692.921 565.488 694.007 567.903C694.85 569.784 696.034 571.518 697.136 573.269C698.887 576.09 700.881 578.716 695.71 580.419C694.818 580.71 694.105 583.888 694.559 585.331C695.434 588.103 697.152 590.583 700.881 590.032C702.259 589.821 703.702 590 705.128 590L705.096 590.032Z" fill="#DDDDDD"/>
<path d="M622.385 532.092H625.692V544.672H633.312L632.939 547.38H622.385V532.076V532.092Z" fill="#2D2D2D"/>
<path d="M639.034 543.862L637.835 547.396H634.576L639.764 532.092H643.914L649.329 547.396H645.843L644.579 543.862H638.986H639.034ZM643.914 541.154C642.828 537.928 642.131 535.87 641.774 534.492H641.758C641.385 535.999 640.623 538.399 639.748 541.154H643.93H643.914Z" fill="#2D2D2D"/>
<path d="M593.075 427.286C622.385 426.297 651.047 425.324 679.774 424.351C679.774 428.258 678.623 432.23 680.114 434.224C681.525 436.105 685.707 435.894 689.809 436.883C685.026 447.161 681.216 457.925 675.332 467.409C667.177 480.556 659.866 493.542 661.73 510.223C660.125 510.337 658.537 510.531 656.932 510.531C647.108 510.531 637.3 510.466 627.476 510.45C619.97 510.45 612.464 510.45 604.699 510.45C604.699 506.478 605.785 502.507 604.374 499.848C603.094 497.416 599.122 496.411 595.62 494.368C598.457 472.84 597.517 450.435 593.075 427.302V427.286Z" fill="#DDDDDD"/>
<path d="M623.099 467.538L621.899 471.073H618.64L623.828 455.769H627.978L633.393 471.073H629.907L628.643 467.538H623.05H623.099ZM627.978 464.831C626.892 461.605 626.195 459.546 625.838 458.168H625.822C625.449 459.676 624.687 462.075 623.812 464.831H627.994H627.978Z" fill="#2D2D2D"/>
<path d="M638.613 464.945V471.073H635.387V455.769H642.115C645.454 455.769 647.237 457.601 647.237 459.968C647.237 462.027 646.119 463.129 645.016 463.583C645.778 463.858 646.913 464.653 646.913 467.393V468.155C646.913 469.176 646.913 470.359 647.124 471.073H643.995C643.719 470.408 643.671 469.257 643.671 467.636V467.409C643.671 465.739 643.249 464.945 640.785 464.945H638.613ZM638.613 462.318H641.385C643.201 462.318 643.898 461.638 643.898 460.357C643.898 459.076 643.087 458.411 641.466 458.411H638.613V462.318Z" fill="#2D2D2D"/>
<path d="M580.203 336.307C577.577 333 574.918 329.693 572.324 326.353C571.871 325.77 571.222 324.748 571.433 324.376C571.822 323.678 572.762 322.9 573.524 322.852C581.403 322.365 589.282 322.009 597.16 321.652C606.401 321.231 615.641 320.631 624.898 320.533C632.858 320.452 640.818 320.955 648.729 321.198C649.361 326.11 649.28 330.244 650.544 333.908C651.971 338.107 654.208 342.159 656.802 345.775C659.834 349.99 663.497 353.783 667.129 357.528C668.491 358.938 670.387 360.024 672.235 360.721C675.332 361.889 676.175 363.575 675.121 366.768C671.781 376.884 673.078 380.532 682.757 384.844C689.144 387.697 692.694 391.653 692.646 398.835C692.613 403.39 694.202 407.281 699.373 408.48C698.806 412.598 699.13 416.359 694.25 418.483C692.386 419.293 691.608 423.573 691.122 426.41C690.23 431.565 690.441 431.63 684.378 430.722C684.605 429.02 684.815 427.302 685.075 425.583C685.756 420.963 684.832 419.747 680.179 419.861C664.292 420.266 648.421 420.769 632.534 421.271C620.391 421.644 608.249 422.001 596.107 422.519C593.27 422.649 592.102 421.741 592.054 418.888C591.875 406.211 591.47 393.533 591.438 380.84C591.421 374.923 591.956 368.989 592.394 363.072C592.686 359.295 591.389 356.507 588.503 354.026C585.958 351.838 582.797 349.763 585.537 345.191C587.206 342.386 580.252 336.291 580.252 336.291L580.203 336.307Z" fill="#DDDDDD"/>
<path d="M633.052 376.171C633.052 373.561 633.101 370.627 633.166 368.908H633.069C632.355 372.037 630.815 377.127 629.356 381.91H626.535C625.417 377.727 623.844 371.924 623.163 368.86H623.066C623.196 370.659 623.261 373.804 623.261 376.43V381.91H620.245V366.606H625.174C626.373 370.61 627.703 375.62 628.157 377.889H628.173C628.546 375.879 630.232 370.513 631.512 366.606H636.262V381.91H633.069V376.171H633.052Z" fill="#2D2D2D"/>
<path d="M653.981 374.209C653.981 378.473 651.42 382.137 646.459 382.137C641.499 382.137 639.148 378.651 639.148 374.274C639.148 369.897 641.92 366.395 646.67 366.395C651.144 366.395 653.981 369.524 653.981 374.209ZM642.552 374.209C642.552 377.192 643.865 379.462 646.573 379.462C649.507 379.462 650.561 376.998 650.561 374.274C650.561 371.372 649.377 369.103 646.524 369.103C643.671 369.103 642.552 371.243 642.552 374.209Z" fill="#2D2D2D"/>
<path d="M578.533 340.992C578.55 342.014 580.787 343.716 580.398 344.332C577.593 348.822 579.879 352.34 582.959 354.934C587.044 358.387 587.644 362.132 587.336 367.255C586.526 380.208 586.607 393.209 586.331 406.195C586.299 407.54 586.331 408.886 586.331 410.75C584.629 410.75 583.3 410.75 581.97 410.75C546.856 410.636 511.742 410.685 476.628 410.312C465.216 410.199 453.819 409.015 441.758 408.286C443.282 383.093 444.773 358.598 446.281 333.422C448.972 333.665 451.371 333.811 453.738 334.086C490.197 338.334 526.77 339.663 563.441 337.993C569.033 337.734 570.557 338.155 576.15 337.572C576.15 337.572 578.501 339.274 578.533 340.976V340.992Z" fill="#DDDDDD"/>
<path d="M498.644 366.606H501.918V373.431C502.923 372.248 506.068 368.811 508.014 366.606H511.969L505.825 372.961L512.196 381.894H508.225L503.523 375.101L501.902 376.641V381.894H498.627V366.59L498.644 366.606Z" fill="#2D2D2D"/>
<path d="M516.022 377.419C516.363 378.959 517.465 379.624 519.248 379.624C521.032 379.624 521.777 378.927 521.777 377.808C521.777 376.56 521.048 376.025 518.422 375.409C514.255 374.436 513.234 372.912 513.234 370.854C513.234 368.195 515.228 366.379 518.843 366.379C522.896 366.379 524.517 368.568 524.744 370.805H521.404C521.242 369.865 520.724 368.843 518.746 368.843C517.4 368.843 516.59 369.395 516.59 370.481C516.59 371.567 517.238 371.972 519.702 372.556C524.16 373.61 525.133 375.263 525.133 377.419C525.133 380.208 523.026 382.137 518.973 382.137C514.92 382.137 513.039 380.224 512.683 377.435H516.022V377.419Z" fill="#2D2D2D"/>
<path d="M317.578 294.32C319.605 294.514 321.08 294.644 322.555 294.822C333.06 296.119 343.581 297.384 354.086 298.729C361.771 299.702 369.422 300.788 377.107 301.793C381.84 302.409 386.574 303.122 391.324 303.511C393.269 303.674 395.263 303.058 396.641 302.879C398.214 303.593 399.413 304.5 400.727 304.695C413.29 306.592 425.854 308.488 438.467 310.109C441.79 310.531 442.941 311.682 442.73 315.038C441.482 334.329 440.396 353.637 439.213 372.929C438.532 384.212 437.786 395.495 437.008 407.67C391.697 403.195 346.743 398.753 301.221 394.247C306.733 360.64 312.131 327.634 317.594 294.32H317.578Z" fill="#DDDDDD"/>
<path d="M375.453 355.307C374.837 358.16 372.681 360.235 368.855 360.235C364.008 360.235 361.706 356.798 361.706 352.454C361.706 348.109 364.073 344.494 369.001 344.494C373.07 344.494 375.048 346.877 375.421 349.438H372.113C371.789 348.255 370.979 347.088 368.887 347.088C366.164 347.088 365.11 349.536 365.11 352.324C365.11 354.902 366.018 357.641 368.985 357.641C371.141 357.641 371.822 356.199 372.113 355.307H375.437H375.453Z" fill="#2D2D2D"/>
<path d="M392.313 352.324C392.313 356.588 389.752 360.251 384.791 360.251C379.83 360.251 377.479 356.766 377.479 352.389C377.479 348.012 380.252 344.51 385.002 344.51C389.476 344.51 392.313 347.639 392.313 352.324ZM380.884 352.324C380.884 355.307 382.197 357.576 384.904 357.576C387.839 357.576 388.892 355.112 388.892 352.389C388.892 349.487 387.709 347.217 384.856 347.217C382.002 347.217 380.884 349.357 380.884 352.324Z" fill="#2D2D2D"/>
<path d="M200.759 374.42C208.427 333.616 215.965 293.477 223.633 252.705C228.805 253.71 233.879 254.65 238.953 255.704C249.361 257.876 259.752 260.211 270.192 262.253C273.532 262.902 274.926 263.923 273.97 267.668C272.802 272.191 272.413 276.925 271.668 281.561C270.727 287.43 271.019 287.786 277.017 288.597C287.555 290.024 298.092 291.483 308.63 292.958C309.845 293.12 311.029 293.444 312.893 293.833C307.495 326.872 302.129 359.765 296.633 393.323C264.454 386.984 232.695 380.71 200.759 374.42Z" fill="#DDDDDD"/>
<path d="M246.426 319.35V328.461C246.426 331.395 247.934 332.27 249.588 332.27C251.484 332.27 252.668 331.249 252.668 328.461V319.35H255.975V328.299C255.975 333.535 252.911 334.864 249.539 334.864C246.167 334.864 243.119 333.47 243.119 328.363V319.35H246.426Z" fill="#2D2D2D"/>
<path d="M262.832 322.057H258.18V319.35H270.776V322.057H266.14V334.637H262.832V322.057Z" fill="#2D2D2D"/>
<path d="M191.243 397.829C188.762 397.003 187.076 396.435 185.407 395.868C179.052 393.728 175.242 396.387 175.015 403.212C174.885 407.362 174.918 411.496 174.788 415.646C174.756 416.829 174.399 418.013 173.961 420.477C168.774 412.403 164.251 405.368 159.728 398.316C141.993 370.627 124.241 342.921 106.506 315.232C103.653 310.774 100.686 306.365 97.9623 301.809C97.3463 300.788 97.1679 299.151 97.476 297.983C103.409 275.255 109.456 252.559 115.487 229.847C115.617 229.344 115.973 228.89 115.941 228.971C150.341 236.607 184.434 244.178 219.175 251.894C209.886 300.431 200.645 348.79 191.259 397.829H191.243Z" fill="#DDDDDD"/>
<path d="M145.916 304.808V289.505H150.017C151.93 292.942 155.464 299.134 156.161 300.804H156.21C156.032 299.199 156.048 296.557 156.048 294.044V289.505H159.047V304.808H155.156C153.519 301.825 149.596 294.709 148.834 292.942H148.785C148.899 294.287 148.931 297.416 148.931 300.156V304.808H145.916Z" fill="#2D2D2D"/>
<path d="M166.358 304.808L160.96 289.505H164.51L166.78 296.573C167.477 298.713 167.996 300.529 168.352 302.085H168.401C168.709 300.658 169.309 298.794 170.038 296.622L172.421 289.505H175.793L170.249 304.808H166.342H166.358Z" fill="#2D2D2D"/>
<path d="M166.909 236.169C155.351 233.348 144.262 231.079 133.449 227.918C106.425 220.023 79.5138 211.706 52.5704 203.568C52.311 203.487 52.0516 203.39 51.776 203.325C41.6925 200.65 41.6439 200.65 42.3734 190.307C42.6004 187.146 42.876 183.952 43.492 180.856C43.8486 179.024 44.7079 177.192 45.6967 175.587C48.3716 171.307 51.9057 167.449 53.9484 162.894C60.9679 147.298 67.5335 131.492 74.164 115.718C75.3961 112.8 76.5633 111.114 80.2271 112.411C83.9719 113.724 88.8029 112.217 91.3157 116.61C92.3046 118.345 93.3259 120.29 93.488 122.219C94.0554 129.466 97.0059 132.919 104.414 134.248C105.63 134.475 106.911 134.686 108.127 134.572C113.379 134.053 117.659 135.496 122.344 138.398C129.218 142.646 137.21 140.862 144.83 138.982C147.05 138.431 149.531 138.35 151.8 138.674C158.042 139.565 164.235 140.684 170.427 141.884C173.605 142.5 176.734 143.456 179.879 144.25C184.142 145.337 188.6 145.969 192.605 147.655C195.052 148.692 197.581 150.978 198.684 153.361C200.078 156.344 196.69 157.187 194.663 158.549C190.238 161.532 184.888 163.98 181.921 168.081C179.182 171.875 178.971 177.532 177.836 182.396C177.431 184.098 177.836 185.995 177.447 187.713C174.415 201.882 171.303 216.018 168.206 230.171C167.834 231.906 167.444 233.624 166.893 236.169H166.909Z" fill="#DDDDDD"/>
<path d="M116.168 180.775C116.168 185.038 113.606 188.702 108.646 188.702C103.685 188.702 101.334 185.217 101.334 180.84C101.334 176.463 104.106 172.961 108.856 172.961C113.331 172.961 116.168 176.09 116.168 180.775ZM104.739 180.775C104.739 183.758 106.052 186.027 108.759 186.027C111.693 186.027 112.747 183.563 112.747 180.84C112.747 177.938 111.564 175.668 108.71 175.668C105.857 175.668 104.739 177.808 104.739 180.775Z" fill="#2D2D2D"/>
<path d="M122.296 182.347V188.475H119.07V173.172H125.797C129.137 173.172 130.92 175.004 130.92 177.37C130.92 179.429 129.802 180.532 128.699 180.986C129.461 181.261 130.596 182.055 130.596 184.795V185.557C130.596 186.578 130.596 187.762 130.823 188.475H127.694C127.418 187.811 127.37 186.66 127.37 185.038V184.811C127.37 183.142 126.948 182.347 124.484 182.347H122.312H122.296ZM122.296 179.721H125.068C126.883 179.721 127.581 179.04 127.581 177.759C127.581 176.479 126.77 175.814 125.149 175.814H122.296V179.721Z" fill="#2D2D2D"/>
<path class="wa bg" d="M135.022 42.8967C139.999 44.2909 144.992 45.6689 149.969 47.0631C151.817 47.9385 153.584 49.0733 155.529 49.6245C171.724 54.2609 187.968 58.7839 204.179 63.3555C205.736 63.7932 207.26 64.3769 208.492 64.7821C205.33 91.2392 195.101 115.881 193.091 143.002C189.249 141.948 185.342 140.862 181.435 139.792C178.42 138.966 175.453 137.977 172.389 137.377C165.531 136.031 158.674 134.734 151.768 133.762C149.19 133.405 146.353 133.551 143.824 134.216C135.8 136.323 128.132 137.847 120.739 131.881C118.681 130.211 115.098 130.309 112.164 129.871C109.602 129.498 106.895 129.855 104.398 129.271C100.572 128.38 97.9623 126.661 98.1406 121.636C98.4 114.535 92.4018 108.974 85.366 108.439C83.2261 108.277 81.1187 107.726 79.692 107.483C80.1946 101.971 80.5837 96.9618 81.1349 91.9849C81.2483 90.9636 81.8806 89.9747 82.4156 89.0506C84.4582 85.4517 87.0358 81.9662 83.4531 77.7999C83.0316 77.3136 83.2261 76.2598 83.2424 75.4655C83.3558 68.3487 83.518 61.2481 83.6314 54.1312C83.6639 52.0075 83.6314 49.8839 84.2475 47.3549C92.3694 53.7908 103.896 52.5263 111.693 61.4426C108.321 63.6149 105.176 65.5117 102.193 67.6516C101.286 68.3 100.07 70.1319 100.329 70.521C102.55 73.7957 104.658 77.3946 107.673 79.8263C109.699 81.4637 114.352 78.27 115.795 75.0115C116.184 74.1361 116.67 73.2121 116.735 72.2718C117.108 67.1652 117.692 62.2045 121.647 58.33C122.279 57.6978 122.377 56.2549 122.312 55.2174C122.052 50.4188 121.647 45.6365 121.291 41C126.43 41.6971 130.726 42.2807 135.005 42.8643L135.022 42.8967Z" fill="#DDDDDD"/>
<path class="text" data-loc="wa" d="M142.625 100.301L138.734 84.9978H142.268C143.695 92.0335 144.359 95.1461 144.538 96.8321H144.554C145.138 94.0275 146.613 88.694 147.504 84.9978H150.471C151.265 87.932 152.806 93.8654 153.308 96.67H153.324C153.827 93.298 155.334 87.3808 155.869 84.9978H159.079L154.929 100.301H151.509C150.698 96.9132 149.352 91.9687 148.817 89.3586H148.801C148.25 92.0822 146.872 97.2374 146.045 100.301H142.625Z" fill="#2D2D2D"/>
<path class="text" data-loc="wa" d="M162.921 96.7673L161.722 100.301H158.463L163.651 84.9978H167.801L173.216 100.301H169.746L168.482 96.7673H162.889H162.921ZM167.801 94.0599C166.715 90.8339 166.018 88.775 165.661 87.3971H165.645C165.272 88.9047 164.51 91.304 163.635 94.0599H167.817H167.801Z" fill="#2D2D2D"/>
<path class="mt bg" d="M321.728 88.5805C324.29 89.4559 326.786 90.8015 329.396 91.1095C349.563 93.4439 369.73 95.7135 389.93 97.6751C399.965 98.6478 410.064 98.9882 420.132 99.5232C422.742 99.6691 423.682 100.496 423.39 103.349C420.359 133.583 417.473 163.85 414.539 194.101C414.36 195.868 414.02 197.618 413.663 199.904C405.817 198.915 398.198 197.975 390.578 197.002C357.556 192.804 324.517 188.621 291.494 184.358C288.463 183.968 287.068 185.201 286.598 187.94C286.242 190.015 285.285 191.312 282.967 190.631C275.364 188.394 267.923 189.756 260.563 191.799C258.05 192.496 256.559 191.896 255.764 189.464C253.738 183.304 251.63 177.16 249.75 170.951C249.377 169.735 249.782 168.211 250.042 166.882C251.484 159.295 248.68 156.15 241.028 156.831C240.234 156.895 239.423 156.928 237.98 157.025C239.374 150.719 240.023 144.494 242.163 138.836C245.016 131.33 241.336 126.45 237.04 121.425C236.781 121.117 236.473 120.809 236.132 120.582C224.087 112.541 223.05 100.318 223.974 87.6078C224.395 81.8852 225.919 76.2436 227.054 69.986C230.912 70.8777 234.365 71.6558 237.786 72.4826C255.375 76.7462 272.9 81.2854 290.57 85.2085C299.73 87.235 309.116 88.2239 318.421 89.5208C319.507 89.6667 320.723 88.8561 321.874 88.4832L321.745 88.5805H321.728Z" fill="#DDDDDD"/>
<path d="M331.099 137.263C331.099 134.653 331.147 131.719 331.212 130.001H331.115C330.401 133.129 328.861 138.22 327.402 143.002H324.582C323.463 138.82 321.891 133.016 321.21 129.952H321.112C321.242 131.751 321.307 134.896 321.307 137.523V143.002H318.292V127.699H323.22C324.419 131.703 325.749 136.712 326.203 138.982H326.235C326.608 136.972 328.294 131.606 329.575 127.699H334.325V143.002H331.131V137.263H331.099Z" fill="#2D2D2D"/>
<path d="M341.004 130.422H336.351V127.715H348.947V130.422H344.311V143.002H341.004V130.422Z" fill="#2D2D2D"/>
<path d="M421.283 173.22C423.617 148.871 425.903 124.975 428.254 100.318C433.992 100.69 439.553 101.112 445.114 101.42C463.724 102.425 482.351 103.544 500.978 104.306C512.294 104.776 523.625 104.776 534.941 104.743C538.621 104.743 539.869 106.332 539.837 109.655C539.804 111.584 540.015 113.53 539.837 115.459C539.188 122.462 540.031 129.077 543.063 135.594C545.884 141.673 546.483 148.287 545.43 155.063C544.943 158.127 545.43 161.354 545.592 164.515C545.657 165.876 546.062 167.238 546.257 168.6C547.505 176.852 545.77 179.105 537.632 178.894C510.008 178.149 482.4 177.403 454.792 176.365C444.87 175.992 434.965 174.793 425.06 173.934C423.974 173.836 422.92 173.544 421.299 173.253L421.283 173.22Z" fill="#DDDDDD"/>
<path d="M469.139 148.676V133.373H473.24C475.153 136.809 478.687 143.002 479.384 144.672H479.433C479.255 143.067 479.271 140.425 479.271 137.912V133.373H482.27V148.676H478.379C476.742 145.693 472.819 138.576 472.057 136.809H472.008C472.122 138.155 472.154 141.284 472.154 144.024V148.676H469.139Z" fill="#2D2D2D"/>
<path d="M485.918 133.389H491.981C496.439 133.389 499.357 136.323 499.357 140.846C499.357 145.369 496.536 148.692 491.851 148.692H485.918V133.389ZM489.225 146.018H491.705C494.639 146.018 495.936 143.829 495.936 140.862C495.936 138.366 494.72 136.064 491.721 136.064H489.225V146.018Z" fill="#2D2D2D"/>
<path d="M662.557 125.64C656.348 128.769 650.674 131.298 645.357 134.459C642.536 136.129 639.796 138.512 638.046 141.235C635.403 145.353 633.798 150.119 631.447 154.447C630.572 156.052 628.918 157.301 627.427 158.5C624.72 160.689 623.958 163.429 623.698 166.833C623.471 169.67 622.612 172.945 620.861 175.068C615.82 181.164 614.199 187.34 617.052 195.008C618.446 198.769 618.138 203.163 618.689 207.264C619.759 215.192 621.899 217.558 629.778 218.774C633.182 219.293 634.641 221.076 636.424 223.946C638.645 227.545 642.569 230.074 645.6 233.219C647.043 234.726 648.08 236.607 649.296 238.309C648.988 238.698 648.68 239.071 648.372 239.46C617.781 240.725 587.19 241.973 556.778 243.221C556.778 237.807 556.794 232.894 556.778 227.999C556.729 218.337 556.778 208.675 556.551 199.029C556.437 194.295 554.605 190.226 550.698 187.146C549.791 186.433 549.175 184.471 549.418 183.288C550.974 175.749 551.023 168.341 549.855 160.673C549.012 155.064 550.099 149.163 550.001 143.408C549.953 141.122 549.45 138.593 548.364 136.615C542.966 126.823 544.489 116.253 544.457 105.359C547.002 105.359 549.547 105.489 552.093 105.343C562.176 104.743 571.854 106.04 581.046 110.579C586.866 113.449 593.091 114.292 599.608 113.562C607.503 112.687 615.058 114.519 622.142 117.875C631.48 122.3 640.85 124.959 651.371 122.543C654.857 121.749 659.299 121.392 662.541 125.656L662.557 125.64Z" fill="#DDDDDD"/>
<path d="M582.797 168.47C582.797 165.86 582.846 162.942 582.91 161.208H582.797C582.084 164.336 580.544 169.427 579.085 174.209H576.264C575.145 170.027 573.573 164.223 572.892 161.159H572.795C572.924 162.958 572.989 166.103 572.989 168.73V174.209H569.974V158.906H574.902C576.102 162.91 577.431 167.919 577.885 170.189H577.917C578.29 168.179 579.976 162.813 581.241 158.906H585.991V174.209H582.797V168.47Z" fill="#2D2D2D"/>
<path d="M589.671 174.209V158.906H593.772C595.685 162.342 599.219 168.535 599.916 170.205H599.965C599.787 168.6 599.803 165.958 599.803 163.445V158.906H602.802V174.209H598.911C597.274 171.226 593.351 164.109 592.589 162.342H592.54C592.654 163.688 592.686 166.817 592.686 169.556V174.209H589.671Z" fill="#2D2D2D"/>
<path d="M647.383 244.226C650.463 252.721 653.122 260.908 660.758 266.16C662.573 267.409 664.113 269.03 665.735 270.537C671.603 276.017 671.117 283.879 664.648 288.597C662.525 290.137 659.947 291.369 658.472 293.396C657.029 295.373 655.748 298.389 656.186 300.593C656.754 303.43 656.04 305.295 654.743 307.467C652.911 310.499 651.29 313.66 649.312 317.243C634.187 313.822 618.349 316.578 602.543 316.821C592.848 316.967 583.137 317.486 573.459 318.069C570.703 318.231 569.682 317.259 569.536 314.714C568.693 299.637 560.944 286.992 555.14 273.65C551.671 265.658 552.919 257.406 555.043 249.333C555.254 248.555 557.442 247.939 558.723 247.89C580.414 246.95 602.089 246.123 623.779 245.248C631.755 244.923 639.732 244.551 647.367 244.21L647.383 244.226Z" fill="#DDDDDD"/>
<path d="M598.198 274.007V289.31H594.891V274.007H598.198Z" fill="#2D2D2D"/>
<path d="M604.715 285.776L603.515 289.31H600.257L605.461 274.007H609.611L615.025 289.31H611.556L610.292 285.776H604.699H604.715ZM609.594 283.069C608.508 279.843 607.811 277.784 607.438 276.406H607.422C607.049 277.914 606.287 280.313 605.412 283.069H609.594Z" fill="#2D2D2D"/>
<path d="M671.781 269.046C683.81 268.122 695.515 267.214 707.22 266.322C713.596 265.836 718.216 268.484 721.08 274.266C722.296 276.714 722.961 278.951 721.453 281.675C720.659 283.117 720.707 285.176 720.821 286.927C721.713 300.156 722.783 313.384 723.625 326.613C723.885 330.714 723.545 334.848 723.593 338.966C723.642 342.257 722.961 345.953 724.209 348.741C726.479 353.799 725.619 358.306 724.225 363.202C722.539 369.135 721.242 375.198 719.848 381.213C719.005 384.86 717.919 388.086 715.001 390.972C712.634 393.306 711.726 397.116 709.943 400.747C708.938 400.569 707.463 399.986 706.052 400.148C704.399 400.342 702.794 401.104 701.238 401.769C700.476 402.093 699.843 402.758 699.163 403.26C698.628 402.369 697.801 401.542 697.59 400.585C697.039 397.878 696.633 395.138 696.358 392.399C695.953 388.459 693.878 385.752 690.506 383.92C687.588 382.331 684.621 380.84 681.735 379.219C678.412 377.354 677.083 374.68 678.542 370.886C679.222 369.087 679.903 367.222 680.13 365.326C680.568 361.727 679.612 358.76 675.688 357.479C672.414 356.409 670.29 354.221 668.328 351.27C666.075 347.882 662.703 345.24 659.866 342.241C653.009 335.026 651.76 319.885 657.434 311.731C660.093 307.905 662.671 304.192 660.563 299.151C660.32 298.567 661.049 297.335 661.649 296.719C662.59 295.746 663.789 294.984 664.924 294.19C674.943 287.284 676.92 280.313 671.781 269.03V269.046Z" fill="#DDDDDD"/>
<path d="M686.226 318.15V333.454H682.919V318.15H686.226Z" fill="#2D2D2D"/>
<path d="M689.89 318.15H693.197V330.73H700.816L700.443 333.438H689.89V318.134V318.15Z" fill="#2D2D2D"/>
<path d="M798.814 210.425C802.494 217.38 806.223 223.8 809.222 230.528C810.049 232.392 809.368 235.553 808.282 237.531C803.726 245.864 799.917 254.358 799.527 264.02C799.414 266.744 798.004 268.073 795.523 268.381C790.044 269.046 784.548 269.613 779.069 270.197C771.384 271.024 763.716 271.915 756.032 272.629C751.007 273.099 745.949 273.31 740.939 273.618C742.269 266.16 743.258 259.546 744.684 253.013C746.111 246.512 744.96 240.595 741.264 235.261C735.849 227.48 734.098 219.277 737.276 210.15C737.957 208.221 738.086 206.097 738.378 204.038C739.124 198.786 741.328 195.981 746.5 194.911C750.52 194.068 751.898 191.896 750.99 188.119C750.342 185.427 751.217 183.547 752.936 181.407C754.638 179.283 755.497 176.43 756.454 173.804C756.989 172.329 756.956 170.659 757.281 168.454C762.047 170.254 766.245 171.875 770.46 173.431C773.768 174.647 777.042 176.041 780.447 176.852C782.797 177.403 783.786 178.084 784.127 180.742C784.483 183.417 786.348 185.865 787.272 188.508C787.936 190.421 788.909 192.739 788.39 194.473C786.542 200.682 784.24 206.745 781.889 212.792C780.69 215.872 781.922 218.223 784.191 219.552C785.569 220.363 788.439 220.363 789.622 219.423C792.929 216.813 795.685 213.538 798.766 210.425H798.814Z" fill="#DDDDDD"/>
<path d="M775.81 238.487C775.81 235.877 775.859 232.959 775.924 231.225H775.81C775.097 234.353 773.557 239.444 772.098 244.226H769.277C768.158 240.044 766.586 234.24 765.905 231.176H765.808C765.937 232.976 766.002 236.121 766.002 238.747V244.226H762.987V228.923H767.915C769.115 232.927 770.444 237.936 770.898 240.206H770.93C771.303 238.196 772.989 232.83 774.254 228.923H779.004V244.226H775.81V238.487Z" fill="#2D2D2D"/>
<path d="M785.975 228.923V244.226H782.668V228.923H785.975Z" fill="#2D2D2D"/>
<path d="M650.285 152.632C650.528 159.959 653.155 161.629 662.525 160.203C663.579 169.556 670.485 172.021 678.461 173.382C685.123 174.517 691.705 176.171 698.384 177.306C701.675 177.873 703.556 179.721 704.723 182.542C705.874 185.346 706.993 188.2 707.787 191.118C708.046 192.026 707.447 193.339 706.912 194.279C705.89 196.062 704.237 197.57 703.588 199.45C703.151 200.715 703.556 202.806 704.415 203.811C705.128 204.638 707.301 205.011 708.403 204.557C710.786 203.584 712.894 201.963 715.569 200.326C715.309 201.509 715.293 202.531 714.888 203.325C711.775 209.307 711.532 215.71 711.645 222.276C711.743 227.642 710.964 233.008 710.997 238.374C711.013 240.984 711.321 244.048 712.683 246.123C715.601 250.5 714.401 254.91 713.818 259.335C713.72 260.032 712.018 260.956 711.013 261.037C696.698 262.221 682.384 263.648 668.037 264.037C664.973 264.118 661.179 260.746 658.829 258.022C654.76 253.321 651.712 247.922 653.236 241.065C654.37 235.958 652.457 231.906 648.032 229.004C644.222 226.491 641.207 223.476 638.97 219.18C637.689 216.715 633.587 214.835 630.507 214.365C625.449 213.603 623.812 210.815 623.18 206.454C622.337 200.601 621.04 194.798 620.618 188.929C620.44 186.303 621.234 183.077 622.774 180.986C626.211 176.3 628.773 171.745 628.902 165.601C628.951 163.364 632.047 160.543 634.43 159.133C638.532 156.701 643.136 155.145 647.562 153.28C648.405 152.924 649.361 152.843 650.301 152.616L650.285 152.632Z" fill="#DDDDDD"/>
<path d="M663.481 215.127L659.59 199.823H663.125C664.551 206.859 665.216 209.972 665.394 211.658H665.41C665.994 208.853 667.469 203.519 668.361 199.823H671.328C672.122 202.757 673.662 208.691 674.164 211.495H674.181C674.683 208.123 676.191 202.206 676.726 199.823H679.936L675.786 215.127H672.365C671.554 211.739 670.209 206.794 669.674 204.184H669.658C669.107 206.908 667.729 212.063 666.902 215.127H663.481Z" fill="#2D2D2D"/>
<path d="M685.237 199.823V215.127H681.93V199.823H685.237Z" fill="#2D2D2D"/>
<path d="M770.898 275.595C772.519 285.711 774.124 295.179 775.486 304.679C775.972 308.067 775.713 311.552 776.005 314.973C776.232 317.68 776.296 320.55 777.302 322.998C780.641 331.152 779.36 339.258 777.642 347.396C777.464 348.255 776.426 349.357 775.583 349.584C771.303 350.719 769.407 353.961 767.98 357.69C767.234 359.619 766.489 361.548 765.759 363.494C764.543 366.752 763.749 370.205 758.675 368.552C757.378 368.13 755.027 369.622 753.698 370.805C749.758 374.339 745.479 376.576 740.015 376.706C735.233 376.819 730.483 377.533 724.841 378.052C725.539 374.955 726.074 371.94 726.917 368.989C727.808 365.812 729.478 362.764 729.883 359.538C730.288 356.28 729.672 352.875 729.316 349.552C729.073 347.38 727.824 345.142 728.149 343.132C730.143 331.314 727.322 319.755 726.706 308.083C726.333 300.901 725.863 293.736 725.49 286.571C725.425 285.371 725.701 284.171 725.879 282.307C730.791 283.75 734.552 282.485 737.195 278.368C737.519 277.865 738.67 277.751 739.448 277.687C748.769 276.973 758.107 276.276 767.445 275.612C768.937 275.514 770.428 275.612 770.93 275.612L770.898 275.595Z" fill="#DDDDDD"/>
<path d="M744.409 312.995V328.299H741.102V312.995H744.409Z" fill="#2D2D2D"/>
<path d="M748.072 328.299V312.995H752.174C754.087 316.432 757.621 322.625 758.318 324.294H758.367C758.188 322.689 758.205 320.047 758.205 317.534V312.995H761.204V328.299H757.313C755.676 325.316 751.752 318.199 750.99 316.432H750.942C751.055 317.777 751.088 320.906 751.088 323.646V328.299H748.072Z" fill="#2D2D2D"/>
<path d="M413.55 251.23C415.998 226.653 418.397 202.66 420.715 179.381C461.941 181.083 502.745 182.769 543.047 184.422C545.008 186.903 547.618 189.318 549.11 192.317C550.715 195.527 552.076 199.24 552.174 202.774C552.66 219.601 553.308 236.461 549.239 253.061C548.445 256.304 548.656 259.805 548.396 263.323C544.035 262.14 540.112 260.778 536.076 260.097C533.012 259.578 529.543 259.157 526.706 260.097C523.026 261.313 520.172 260.567 517.4 258.606C513.59 255.931 509.538 255.072 504.901 255.299C475.867 256.725 446.929 255.055 418.073 251.927C416.727 251.781 415.398 251.505 413.534 251.213L413.55 251.23Z" fill="#DDDDDD"/>
<path d="M471.376 224.481C471.716 226.021 472.835 226.686 474.602 226.686C476.369 226.686 477.115 225.988 477.115 224.87C477.115 223.622 476.369 223.087 473.759 222.471C469.593 221.498 468.571 219.974 468.571 217.915C468.571 215.256 470.565 213.441 474.181 213.441C478.25 213.441 479.855 215.629 480.082 217.867H476.742C476.58 216.926 476.061 215.905 474.083 215.905C472.738 215.905 471.927 216.456 471.927 217.542C471.927 218.628 472.576 219.034 475.056 219.617C479.498 220.671 480.487 222.325 480.487 224.481C480.487 227.269 478.379 229.198 474.326 229.198C470.274 229.198 468.393 227.285 468.036 224.497H471.376V224.481Z" fill="#2D2D2D"/>
<path d="M482.935 213.668H488.998C493.456 213.668 496.358 216.602 496.358 221.125C496.358 225.648 493.537 228.971 488.852 228.971H482.919V213.668H482.935ZM486.242 226.296H488.722C491.656 226.296 492.953 224.108 492.953 221.141C492.953 218.645 491.738 216.343 488.738 216.343H486.242V226.296Z" fill="#2D2D2D"/>
<path d="M447.318 328.282C447.318 322.576 447.172 316.934 447.367 311.293C447.497 307.759 446.005 306.429 442.633 306.008C432.501 304.711 422.385 303.171 412.269 301.712C410.356 301.436 408.411 301.371 408.735 298.389C410.227 284.528 411.572 270.667 413.031 256.239C419.321 256.887 425.287 257.698 431.285 258.071C455.683 259.611 480.082 261.767 504.577 259.919C508.37 259.627 511.629 260.276 514.725 262.464C518.648 265.22 522.863 265.966 527.694 264.701C534.665 262.869 540.923 266.306 547.343 268.203C547.797 268.333 548.299 268.835 548.494 269.289C553.681 281.61 559.031 293.849 563.862 306.316C565.11 309.542 564.689 313.4 565.127 316.967C565.759 322.009 567.25 326.677 571.222 330.228C571.789 330.73 572.016 331.59 572.406 332.27C565.953 336.015 461.033 332.546 447.302 328.315L447.318 328.282Z" fill="#DDDDDD"/>
<path d="M484.88 301.761V286.457H488.982C490.894 289.894 494.429 296.087 495.126 297.756H495.174C494.996 296.151 495.012 293.509 495.012 290.996V286.457H498.011V301.761H494.121C492.483 298.778 488.56 291.661 487.798 289.894H487.749C487.863 291.239 487.895 294.368 487.895 297.108V301.761H484.88Z" fill="#2D2D2D"/>
<path d="M512.18 295.162H504.869V299.053H512.942L512.553 301.761H501.659V286.457H512.504V289.164H504.869V292.439H512.18V295.146V295.162Z" fill="#2D2D2D"/>
<path d="M413.501 204.622C410.275 236.72 407.098 268.284 403.823 300.918C361.09 295.211 318.794 289.57 275.785 283.847C276.807 278.205 277.812 273.115 278.622 267.976C282.205 245.053 285.69 222.13 289.306 199.223C290.927 188.945 291.024 189.107 301.221 190.421C335.038 194.749 368.871 198.98 402.704 203.244C406.222 203.682 409.74 204.152 413.501 204.622Z" fill="#DDDDDD"/>
<path d="M335.557 252.17L331.666 236.866H335.2C336.627 243.902 337.291 247.015 337.47 248.701H337.486C338.07 245.896 339.545 240.562 340.436 236.866H343.403C344.197 239.801 345.738 245.734 346.24 248.538H346.256C346.759 245.167 348.267 239.249 348.801 236.866H352.011L347.861 252.17H344.441C343.63 248.782 342.284 243.837 341.75 241.227H341.733C341.182 243.951 339.804 249.106 338.977 252.17H335.557Z" fill="#2D2D2D"/>
<path d="M357.62 252.17V246.771C357.62 246.593 357.588 246.447 357.491 246.285L352.222 236.883H355.967C357.15 239.185 358.69 242.265 359.452 243.918C360.117 242.313 361.787 239.087 362.954 236.883H366.407L361.057 246.236C360.992 246.35 360.928 246.415 360.928 246.723V252.186H357.62V252.17Z" fill="#2D2D2D"/>
<path class="id bg" d="M213.371 66.5816C214.214 66.5005 214.506 66.4033 214.766 66.4519C224.298 68.7053 222.936 67.9434 221.072 75.9194C218.202 88.2238 217.943 100.301 222.677 112.136C223.795 114.924 226 117.372 228.01 119.706C229.615 121.571 231.885 122.851 233.571 124.667C237.008 128.347 239.715 131.978 237.494 137.847C235.419 143.343 234.706 149.357 233.473 155.177C232.582 159.36 234.268 161.499 238.499 161.743C239.456 161.791 240.428 161.678 241.401 161.629C245.891 161.337 245.843 161.58 245.438 166.152C245.178 169.054 245.567 172.134 246.264 174.987C247.464 179.802 249.004 184.552 250.641 189.237C253.251 196.727 255.408 197.975 263.059 196.062C269.025 194.587 274.926 193.42 281.022 195.025C282.205 195.333 283.388 195.592 284.929 195.965C281.751 216.861 278.606 237.563 275.396 258.703C266.496 256.839 257.758 255.007 249.036 253.159C224.849 248.052 200.678 242.881 176.458 237.888C172.924 237.158 171.643 235.942 172.502 232.165C175.81 217.785 178.987 203.357 181.937 188.897C182.813 184.617 182.683 180.126 183.169 175.749C183.494 172.864 184.969 170.918 187.692 169.362C192.297 166.703 196.576 163.445 200.889 160.3C203.726 158.225 205.104 152.956 202.639 150.232C195.539 142.37 198.262 133.567 199.948 125.17C202.883 110.563 206.741 96.1512 210.129 81.6258C211.296 76.6651 212.253 71.6558 213.323 66.5816H213.371Z" fill="#DDDDDD"/>
<path class="text" data-loc="id" d="M213.631 202.741V218.045H210.324V202.741H213.631Z" fill="#2D2D2D"/>
<path class="text" data-loc="id" d="M217.295 202.741H223.358C227.816 202.741 230.718 205.676 230.718 210.199C230.718 214.722 227.897 218.045 223.212 218.045H217.278V202.741H217.295ZM220.602 215.37H223.082C226.016 215.37 227.313 213.181 227.313 210.215C227.313 207.718 226.097 205.416 223.098 205.416H220.602V215.37Z" fill="#2D2D2D"/>
<path d="M724.355 455.299C724.015 460.503 723.69 465.009 723.431 469.516C722.426 486.749 720.999 503.982 720.626 521.231C720.367 532.919 721.583 544.656 722.215 556.361C722.458 561.046 722.799 565.715 723.318 570.384C723.593 572.848 722.637 573.95 720.383 574.437C715.471 575.49 710.575 576.609 705.08 577.841C702.583 573.48 699.616 568.536 696.909 563.461C695.661 561.143 694.364 560.138 691.462 560.3C682.497 560.803 673.516 560.835 664.535 561.03C662.914 561.062 661.293 561.03 659.218 561.03C659.801 552.178 662.152 544.591 667.615 538.172C672.106 532.903 672.171 531.671 668.815 525.867C667.696 523.922 667.161 521.474 666.934 519.204C666.48 514.568 666.432 509.883 666.189 505.214C665.556 493.104 671.117 483.085 677.018 473.212C679.141 469.678 681.346 466.177 683.713 462.805C684.491 461.702 685.804 460.422 687.004 460.243C699.146 458.509 711.321 456.985 724.355 455.299Z" fill="#DDDDDD"/>
<path d="M695.742 508.634C695.742 506.024 695.791 503.106 695.855 501.372H695.758C695.045 504.5 693.505 509.591 692.046 514.373H689.225C688.106 510.191 686.534 504.387 685.853 501.323H685.756C685.885 503.122 685.95 506.268 685.95 508.894V514.373H682.935V499.07H687.863C689.063 503.074 690.392 508.083 690.846 510.353H690.862C691.235 508.343 692.921 502.977 694.202 499.07H698.952V514.373H695.758V508.634H695.742Z" fill="#2D2D2D"/>
<path d="M704.593 509.899C704.934 511.439 706.036 512.104 707.819 512.104C709.603 512.104 710.348 511.406 710.348 510.288C710.348 509.04 709.603 508.505 706.993 507.889C702.826 506.916 701.805 505.392 701.805 503.333C701.805 500.675 703.799 498.859 707.414 498.859C711.467 498.859 713.088 501.047 713.315 503.285H709.976C709.813 502.344 709.295 501.323 707.317 501.323C705.971 501.323 705.161 501.874 705.161 502.96C705.161 504.047 705.809 504.452 708.273 505.035C712.732 506.089 713.704 507.743 713.704 509.899C713.704 512.687 711.597 514.616 707.544 514.616C703.491 514.616 701.61 512.703 701.254 509.915H704.593V509.899Z" fill="#2D2D2D"/>
<path d="M797.144 546.196C788.941 547.752 781.046 549.617 773.038 550.671C764.965 551.724 756.794 551.951 748.672 552.551C741.426 553.102 739.043 557.301 742.171 563.899C743.274 566.234 744.36 568.584 745.414 570.854C740.615 574.145 740.161 573.918 738.378 569.443C737.746 567.871 736.157 566.671 734.99 565.293C733.693 566.542 732.282 567.709 731.115 569.071C730.353 569.946 729.899 571.113 728.278 572.102C727.759 566.882 727.289 561.646 726.706 556.426C724.144 533.503 725.263 510.596 726.819 487.689C727.484 477.898 728.311 468.122 728.894 458.33C729.056 455.655 729.997 454.456 732.72 454.132C745.884 452.494 759.031 450.76 772.146 448.895C775 448.49 775.68 449.9 776.248 452.154C780.09 467.279 783.948 482.421 787.969 497.497C788.698 500.221 789.898 502.944 791.487 505.262C793.967 508.878 794.55 512.395 794.356 516.87C794.032 524.214 795.167 531.638 795.815 539.031C796.01 541.187 796.593 543.327 797.128 546.196H797.144Z" fill="#DDDDDD"/>
<path d="M749.013 515.735L747.813 519.269H744.555L749.758 503.966H753.908L759.323 519.269H755.854L754.589 515.735H748.996H749.013ZM753.892 513.028C752.806 509.802 752.109 507.743 751.736 506.365H751.72C751.347 507.872 750.585 510.272 749.71 513.028H753.892Z" fill="#2D2D2D"/>
<path d="M761.301 503.982H764.608V516.562H772.227L771.855 519.269H761.301V503.966V503.982Z" fill="#2D2D2D"/>
<path d="M880.795 511.504C875.818 507.856 872.933 502.831 869.966 497.627C867.405 493.136 864.568 488.565 860.92 484.966C851.29 475.433 841.126 466.469 831.269 457.179C827.508 453.629 822.094 450.97 824.185 443.497C809.027 444.924 794.68 446.269 779.928 447.647C783.186 460.519 786.185 472.288 789.168 484.058C791.195 492.05 792.8 500.091 797.777 507.127C799.349 509.348 798.847 513.19 798.96 516.302C799.138 521.231 798.571 526.224 799.171 531.087C799.933 537.231 801.862 543.246 802.64 549.39C803.191 553.783 805.266 554.626 809.189 554.399C819.678 553.832 830.199 553.556 840.704 553.232C842.488 553.183 845.13 552.389 844.919 555.437L846.281 555.291C847.043 554.448 847.659 553.119 848.583 552.875C849.977 552.519 851.582 552.762 853.058 553.005C856.121 553.54 859.153 554.253 862.444 554.95C862.736 553.686 863.19 552.746 863.141 551.854C862.817 547.007 865.864 546.472 869.528 546.699C872.203 546.877 874.878 547.137 877.796 547.396C877.748 536.372 878.396 525.997 882.027 515.994C882.481 514.762 881.784 512.25 880.763 511.504H880.795Z" fill="#DDDDDD"/>
<path d="M833.344 514.373H830.913C830.783 513.903 830.702 513.384 830.653 512.866C829.81 514.017 828.319 514.633 826.179 514.633C821.737 514.633 819.257 511.277 819.257 506.916C819.257 502.312 821.932 498.859 826.746 498.859C830.686 498.859 833.004 501.08 833.377 503.69H830.07C829.762 502.669 828.951 501.453 826.714 501.453C823.569 501.453 822.677 504.079 822.677 506.77C822.677 509.461 823.699 511.99 826.73 511.99C829.551 511.99 830.086 510.029 830.086 508.667V508.521H826.73V505.814H833.328V514.373H833.344Z" fill="#2D2D2D"/>
<path d="M839.813 510.839L838.613 514.373H835.355L840.558 499.07H844.709L850.123 514.373H846.654L845.389 510.839H839.797H839.813ZM844.692 508.132C843.606 504.906 842.909 502.847 842.536 501.469H842.52C842.147 502.977 841.385 505.376 840.51 508.132H844.692Z" fill="#2D2D2D"/>
<path d="M923.366 450.857C917.401 454.537 916.315 459.644 915.698 464.718C914.888 471.3 911.532 476.114 906.961 480.589C904.966 482.518 903.248 485.241 902.583 487.9C901.562 491.985 899.228 494.595 896.131 497.092C892.014 500.399 888.188 504.063 883.827 507.937C879.369 506.511 877.099 501.858 875.202 497.222C871.847 489.035 866.156 482.826 859.737 477.055C850.302 468.56 840.98 459.919 831.594 451.343C826.892 447.047 827.476 444.227 833.393 441.924C842.796 438.261 852.215 434.873 862.476 434.289C866.626 434.062 870.42 434.24 874.003 436.445C880.568 440.482 887.474 441.811 895.045 439.493C896.763 438.974 899.082 439.039 900.687 439.785C908.047 443.157 915.277 446.869 923.366 450.873V450.857Z" fill="#DDDDDD"/>
<path d="M870.469 466.582C870.809 468.122 871.928 468.787 873.695 468.787C875.462 468.787 876.207 468.09 876.207 466.971C876.207 465.723 875.478 465.188 872.852 464.572C868.685 463.599 867.664 462.075 867.664 460.016C867.664 457.358 869.658 455.542 873.273 455.542C877.342 455.542 878.947 457.731 879.174 459.968H875.834C875.672 459.027 875.154 458.006 873.176 458.006C871.83 458.006 871.02 458.557 871.02 459.643C871.02 460.73 871.668 461.135 874.149 461.719C878.59 462.772 879.579 464.426 879.579 466.582C879.579 469.37 877.472 471.299 873.419 471.299C869.366 471.299 867.486 469.387 867.129 466.598H870.469V466.582Z" fill="#2D2D2D"/>
<path d="M895.207 466.355C894.591 469.208 892.435 471.283 888.609 471.283C883.762 471.283 881.46 467.846 881.46 463.502C881.46 459.157 883.827 455.542 888.755 455.542C892.824 455.542 894.802 457.925 895.175 460.486H891.868C891.543 459.303 890.733 458.136 888.642 458.136C885.918 458.136 884.864 460.584 884.864 463.372C884.864 465.95 885.772 468.689 888.739 468.689C890.895 468.689 891.576 467.247 891.868 466.355H895.191H895.207Z" fill="#2D2D2D"/>
<path d="M687.02 455.266C688.447 451.586 689.582 448.652 690.716 445.702C693.181 439.314 696.115 433.041 695.823 425.956C695.677 422.325 697.817 421.158 700.93 420.914C704.642 420.623 708.435 420.72 712.067 419.974C722.15 417.899 732.088 414.932 742.236 413.311C763.749 409.875 785.375 407.038 806.952 403.99C819.808 402.174 832.664 400.456 845.519 398.705C846.297 398.591 847.092 398.608 848.226 398.543C847.529 402.044 846.816 404.314 843.006 405.741C837.332 407.881 831.48 410.377 828.222 416.391C827.346 418.013 825.109 419.002 823.358 420.023C818.592 422.795 813.745 425.437 808.93 428.145C805.655 429.977 803.726 432.635 803.872 436.51C803.969 439.136 802.997 440.303 800.127 440.66C773.151 444.064 746.192 447.647 719.232 451.165C709.651 452.413 700.07 453.678 690.489 454.942C689.565 455.056 688.625 455.104 687.02 455.25V455.266Z" fill="#DDDDDD"/>
<path d="M746.986 421.612H742.334V418.904H754.93V421.612H750.293V434.192H746.986V421.612Z" fill="#2D2D2D"/>
<path d="M756.989 434.208V418.904H761.09C763.003 422.341 766.537 428.534 767.234 430.204H767.283C767.105 428.599 767.121 425.956 767.121 423.443V418.904H770.12V434.208H766.229C764.592 431.225 760.669 424.108 759.907 422.341H759.858C759.972 423.687 760.004 426.815 760.004 429.555V434.208H756.989Z" fill="#2D2D2D"/>
<path d="M962.566 377.743C960.328 380.224 957.978 382.607 955.903 385.217C954.881 386.498 954.379 388.184 953.633 389.691C955.206 390.226 956.762 390.875 958.383 391.28C959.291 391.507 960.312 391.345 961.269 391.41C966.148 391.766 967.056 392.788 966.781 397.554C966.57 401.412 964.77 402.952 960.49 402.871C959.258 402.839 957.686 402.109 956.859 402.628C955.53 403.455 954.379 404.93 953.714 406.373C952.806 408.334 952.45 410.523 951.834 412.614C951.38 414.187 950.083 416.327 950.666 417.202C951.396 418.288 953.666 418.645 955.303 418.742C957.394 418.872 959.518 418.418 961.642 418.223C961.82 418.726 961.998 419.228 962.177 419.731C959.145 421.287 956.259 423.46 953.033 424.27C945.916 426.086 941.41 430.155 939.302 437.158C938.638 439.379 937.405 441.454 936.287 443.513C933.758 448.15 929.964 449.236 925.393 446.869C918.276 443.189 911.24 439.314 903.929 436.056C901.189 434.84 897.493 434.111 894.753 434.921C887.588 437.045 881.59 434.986 875.283 432.035C871.944 430.463 867.923 429.669 864.211 429.652C852.831 429.604 842.163 433.138 831.821 437.531C824.217 440.757 816.371 439.023 808.654 439.768C807.974 435.894 808.914 433.397 812.107 431.711C816.014 429.652 819.711 427.204 823.618 425.178C827.573 423.119 830.848 420.655 833.766 417.04C836.295 413.911 840.413 411.317 844.32 410.231C848.94 408.95 851.323 406.421 852.15 402.288C852.976 398.121 855.441 397.003 859.267 396.63C889.987 393.517 919.946 386.319 950.034 379.802C953.876 378.975 957.589 377.516 961.366 376.349C961.771 376.803 962.177 377.273 962.582 377.727L962.566 377.743Z" fill="#DDDDDD"/>
<path d="M889.452 420.12V404.817H893.554C895.467 408.253 899.001 414.446 899.698 416.116H899.746C899.568 414.511 899.584 411.868 899.584 409.356V404.817H902.583V420.12H898.693C897.055 417.137 893.132 410.02 892.37 408.253H892.321C892.435 409.599 892.467 412.728 892.467 415.467V420.12H889.452Z" fill="#2D2D2D"/>
<path d="M919.2 415.403C918.584 418.256 916.428 420.331 912.602 420.331C907.755 420.331 905.453 416.894 905.453 412.549C905.453 408.205 907.82 404.59 912.748 404.59C916.817 404.59 918.795 406.973 919.168 409.534H915.86C915.536 408.351 914.726 407.183 912.634 407.183C909.911 407.183 908.857 409.631 908.857 412.42C908.857 414.997 909.765 417.737 912.732 417.737C914.888 417.737 915.569 416.294 915.86 415.403H919.184H919.2Z" fill="#2D2D2D"/>
<path d="M960.474 371.94C915.374 384.455 869.626 391.329 823.585 396.727C823.277 396.37 822.969 396.014 822.661 395.657C828.043 389.934 833.442 384.244 838.792 378.489C840.429 376.722 841.872 376.544 844.19 377.63C846.297 378.603 849.118 379.138 851.307 378.603C857.451 377.079 863.481 375.02 869.48 372.961C877.391 370.254 881.006 363.964 882.708 356.263C883.211 353.978 883.389 351.594 884.005 349.341C884.929 345.953 884.281 341.641 889.095 340.344C889.663 340.198 889.971 338.998 890.409 338.301C894.996 330.941 899.503 323.516 904.302 316.302C904.983 315.265 907.009 314.924 908.501 314.649C911.143 314.146 913.883 314.114 916.509 313.579C919.07 313.044 924.047 316.967 924.209 320.015C924.55 326.402 927.468 330.957 933.466 333.421C934.876 334.005 936.222 334.686 937.632 335.27C947.213 339.339 945.787 338.155 946.273 350.006C946.354 352.162 946.662 354.318 946.711 356.474C946.727 357.431 946.468 358.452 946.111 359.36C945.479 360.965 943.647 363.348 944.101 363.899C945.463 365.536 947.635 366.59 949.661 367.563C950.358 367.903 951.558 367.417 952.45 367.109C956.394 365.758 959.08 367.363 960.507 371.924L960.474 371.94Z" fill="#DDDDDD"/>
<path d="M901.951 364.191L896.553 348.887H900.103L902.373 355.955C903.053 358.095 903.588 359.911 903.945 361.467H903.994C904.302 360.041 904.902 358.176 905.631 356.004L908.014 348.887H911.386L905.842 364.191H901.935H901.951Z" fill="#2D2D2D"/>
<path d="M914.612 360.657L913.413 364.191H910.154L915.342 348.887H919.492L924.906 364.191H921.421L920.157 360.657H914.564H914.612ZM919.492 357.949C918.406 354.723 917.709 352.664 917.352 351.286H917.336C916.963 352.794 916.201 355.193 915.325 357.949H919.508H919.492Z" fill="#2D2D2D"/>
<path d="M859.688 307.094C866.399 315.573 873.079 309.445 879.904 308.407C880.552 310.936 880.941 313.352 881.784 315.589C883.049 318.961 885.302 319.642 887.75 317.08C890.538 314.162 892.743 310.677 895.272 307.499C895.807 306.819 896.553 306.17 897.347 305.878C898.628 305.408 900.087 305.424 901.368 304.938C906.361 303.058 909.457 305.181 911.808 310.061C910.268 310.061 908.938 310.191 907.658 310.045C903.394 309.542 901.189 311.893 899.195 315.281C895.142 322.155 890.765 328.85 886.534 335.61C886.388 335.837 886.242 336.194 886.031 336.258C879.223 338.107 880.747 344.316 879.385 348.984C879.077 350.038 878.769 351.124 878.704 352.227C877.942 363.137 871.214 368.535 861.39 371.113C858.456 371.891 855.505 372.588 852.636 373.577C848.778 374.923 845.163 374.145 842.747 371.275C838.354 366.023 834.463 360.332 830.556 354.707C830.086 354.026 830.54 352.373 831.042 351.416C833.263 347.153 834.966 342.338 838.143 338.917C842.115 334.637 843.541 329.498 845.616 324.489C845.908 323.776 846.605 323.046 847.302 322.722C853.674 319.707 857.645 314.681 859.72 307.078L859.688 307.094Z" fill="#DDDDDD"/>
<path d="M846.508 350.995L842.617 335.691H846.151C847.578 342.727 848.243 345.839 848.421 347.525H848.437C849.021 344.721 850.496 339.387 851.388 335.691H854.354C855.149 338.625 856.689 344.559 857.191 347.363H857.208C857.71 343.991 859.218 338.074 859.753 335.691H862.963L858.813 350.995H855.392C854.581 347.606 853.236 342.662 852.701 340.052H852.685C852.133 342.775 850.756 347.931 849.929 350.995H846.508Z" fill="#2D2D2D"/>
<path d="M868.588 350.995L863.19 335.691H866.74L869.009 342.759C869.69 344.899 870.225 346.715 870.582 348.271H870.631C870.939 346.845 871.538 344.98 872.268 342.808L874.651 335.691H878.023L872.479 350.995H868.572H868.588Z" fill="#2D2D2D"/>
<path d="M783.738 342.354C786.267 343.067 789.152 343.051 790.789 344.461C797.793 350.541 805.947 349.795 814.02 348.774C821.072 347.882 821.462 347.979 824.898 354.124C828.562 360.689 832.761 366.947 836.846 373.545C835.76 374.663 834.106 376.284 832.566 378.019C829.211 381.796 825.774 385.525 822.612 389.464C818.868 394.101 815.285 398.202 808.557 399.11C782.149 402.66 755.805 406.584 729.478 410.701C722.183 411.836 715.082 414.138 707.868 415.84C706.587 416.148 705.209 416.116 703.07 416.31C703.767 412.209 704.35 408.659 704.918 405.352C705.777 405.141 706.052 404.979 706.296 405.027C714.158 406.632 714.045 406.616 716.201 398.591C716.736 396.597 718.26 394.83 719.459 393.047C720.302 391.799 722.004 390.794 722.199 389.497C723.382 381.472 730.029 381.813 735.265 381.65C743.582 381.391 751.12 380.143 757.248 373.999C757.848 373.399 759.404 373.269 760.312 373.561C764.43 374.874 766.683 372.637 768.207 369.411C769.974 365.666 771.32 361.727 773.054 357.982C773.654 356.685 774.74 354.853 775.843 354.691C781.598 353.799 782.343 349.438 783.203 345.013C783.332 344.364 783.494 343.716 783.786 342.37L783.738 342.354Z" fill="#DDDDDD"/>
<path d="M778.501 372.118H781.776V378.943C782.781 377.76 785.926 374.323 787.871 372.118H791.827L785.683 378.473L792.054 387.406H788.082L783.381 380.613L781.76 382.153V387.406H778.485V372.102L778.501 372.118Z" fill="#2D2D2D"/>
<path d="M796.626 387.422V382.007C796.626 381.829 796.609 381.683 796.496 381.521L791.227 372.118H794.972C796.155 374.42 797.696 377.5 798.457 379.154C799.122 377.549 800.792 374.323 801.959 372.118H805.412L800.062 381.472C799.998 381.586 799.933 381.65 799.933 381.958V387.422H796.626Z" fill="#2D2D2D"/>
<path d="M859.737 300.042C856.511 301.145 855.327 303.884 855.197 306.819C854.971 311.828 852.733 314.795 848.081 316.74C843.574 318.62 840.785 322.236 839.424 327.196C838.71 329.79 836.522 331.962 835.16 334.41C834.106 336.307 833.377 338.398 832.356 340.328C831.026 342.873 829.551 345.353 827.962 348.19C823.601 343.051 818.625 343.213 812.837 344.332C806.077 345.645 799.236 345.645 793.27 340.49C791.081 338.593 787.466 338.366 784.726 337.442C782.376 322.592 779.863 307.775 777.756 292.893C776.929 287.105 776.994 281.188 776.686 276.065C785.813 274.331 793.708 272.596 801.7 271.478C804.115 271.137 806.806 272.369 809.303 273.115C820.813 276.519 833.393 272.159 840.591 262.561C843.185 259.092 846.492 256.142 850.172 252.202C851.047 255.493 851.339 257.552 852.117 259.384C855.684 267.652 854.679 276.795 857.175 285.29C858.018 288.143 857.062 291.564 856.737 294.709C856.462 297.351 856.17 299.815 859.737 300.35L859.607 300.237L859.72 300.075L859.737 300.042Z" fill="#DDDDDD"/>
<path d="M816.906 304.29C816.906 308.553 814.345 312.217 809.384 312.217C804.423 312.217 802.073 308.731 802.073 304.354C802.073 299.977 804.845 296.476 809.595 296.476C814.069 296.476 816.906 299.604 816.906 304.29ZM805.477 304.29C805.477 307.272 806.79 309.542 809.497 309.542C812.432 309.542 813.485 307.078 813.485 304.354C813.485 301.453 812.302 299.183 809.449 299.183C806.596 299.183 805.477 301.323 805.477 304.29Z" fill="#2D2D2D"/>
<path d="M819.808 296.686H823.115V302.652H829.275V296.686H832.582V311.99H829.275V305.376H823.115V311.99H819.808V296.686Z" fill="#2D2D2D"/>
<path d="M859.737 300.318C859.899 299.118 860.109 297.918 860.19 296.703C860.466 292.942 861.342 289.099 860.823 285.452C859.234 274.331 857.046 263.291 855.262 252.186C855.1 251.197 855.911 249.706 856.737 248.96C858.034 247.809 859.737 247.096 861.196 246.236C861.585 246.593 861.893 246.739 861.958 246.95C863.757 253.532 863.806 253.775 870.388 252.186C893.229 246.707 916.039 241.081 938.816 235.359C941.183 234.759 942.545 235.067 944.149 236.85C951.59 245.118 951.753 245.102 949.564 256.482C948.916 259.838 949.045 262.642 951.299 265.366C952.596 266.938 953.568 268.851 954.427 270.716C957.88 278.108 956.454 280.07 950.261 285.225C943.274 291.029 935.071 292.471 926.884 294.417C917.757 296.589 908.533 298.372 899.406 300.545C895.58 301.453 891.851 302.539 890.846 307.467C890.425 309.558 888.415 311.309 886.793 312.882C881.898 303.528 881.46 303.333 872.722 306.17C866.497 308.197 866.529 308.164 862.46 303.074C861.633 302.036 860.499 301.226 859.51 300.318L859.607 300.188L859.737 300.302V300.318Z" fill="#DDDDDD"/>
<path d="M889.452 260.259H895.774C899.017 260.259 901.238 262.091 901.238 264.993C901.238 268.316 898.725 269.84 895.71 269.84H892.775V275.547H889.468V260.243L889.452 260.259ZM892.759 267.214H895.288C896.812 267.214 897.898 266.63 897.898 265.058C897.898 263.485 896.763 262.886 895.353 262.886H892.759V267.198V267.214Z" fill="#2D2D2D"/>
<path d="M905.291 272.029L904.091 275.563H900.832L906.036 260.259H910.186L915.601 275.563H912.132L910.867 272.029H905.274H905.291ZM910.17 269.322C909.084 266.095 908.387 264.037 908.014 262.659H907.998C907.625 264.166 906.863 266.566 905.988 269.322H910.17Z" fill="#2D2D2D"/>
<path d="M951.428 142.694C952.628 145.483 953.812 147.687 954.509 150.022C955.676 153.945 956.438 157.982 957.572 161.905C958.95 166.638 959.599 171.956 962.225 175.879C969.31 186.433 971.693 197.57 970.282 210.101C969.715 215.127 970.85 220.525 972.066 225.551C973.703 232.311 974.562 238.731 973.33 245.783C967.429 244.696 961.204 244.421 955.724 242.232C952.369 240.903 949.904 236.866 947.521 233.689C944.928 230.236 942.431 229.636 938.086 230.771C915.245 236.688 892.273 242.103 869.35 247.663C868.831 247.793 868.264 247.744 867.534 247.793C865.865 244.242 865.767 241.097 868.815 238.098C870.679 236.266 872.074 233.997 873.743 231.954C877.115 227.82 878.331 223.492 876.532 218.11C874.586 212.274 876.143 210.815 882.206 209.696C889.663 208.334 897.136 206.81 904.383 204.589C911.467 202.417 915.893 195.965 915.439 189.578C914.661 178.765 920.594 171.064 924.404 162.278C927.241 155.728 931.894 151.351 938.589 148.79C942.95 147.136 947.035 144.802 951.412 142.678L951.428 142.694Z" fill="#DDDDDD"/>
<path d="M931.002 210.96V195.657H935.103C937.016 199.094 940.55 205.286 941.247 206.956H941.296C941.118 205.351 941.134 202.709 941.134 200.196V195.657H944.133V210.96H940.242C938.605 207.978 934.682 200.861 933.92 199.094H933.871C933.985 200.439 934.017 203.568 934.017 206.308V210.96H931.002Z" fill="#2D2D2D"/>
<path d="M951.153 210.96V205.546C951.153 205.368 951.137 205.222 951.023 205.059L945.754 195.657H949.499C950.683 197.959 952.223 201.039 952.985 202.693C953.649 201.088 955.319 197.862 956.486 195.657H959.939L954.59 205.011C954.525 205.124 954.46 205.189 954.46 205.497V210.96H951.153Z" fill="#2D2D2D"/>
<path d="M1015.93 170.853C1014.38 168.989 1012.17 167.368 1011.36 165.212C1006.77 152.924 1002.51 140.522 998.214 128.12C997.841 127.05 997.501 125.429 998.036 124.651C1003.16 117.08 1003.11 108.164 1004.83 99.7015C1006.73 90.4124 1008.7 81.1394 1011.01 71.9476C1012.33 66.6302 1014.1 65.5927 1019.61 65.4144C1022.09 65.3333 1024.62 65.6575 1027.07 65.3171C1031.56 64.7173 1033.8 66.9707 1034.84 70.91C1036.13 75.8383 1037.72 80.7504 1038.42 85.7921C1039.31 92.2118 1042.8 96.3133 1048.21 99.2152C1050.76 100.577 1053.32 101.939 1055.83 103.365C1061.96 106.851 1062.41 112.201 1056.62 116.026C1052.17 118.977 1048.29 122.219 1045.76 127.066C1045.07 128.412 1043.07 129.757 1041.58 129.871C1038.76 130.082 1037.4 131.33 1036.41 133.762C1034.3 138.966 1030.99 143.245 1026.49 146.698C1020.73 151.108 1018.2 157.187 1017.96 164.336C1017.89 166.217 1017.67 168.114 1017.52 169.994C1016.99 170.286 1016.45 170.578 1015.92 170.87L1015.93 170.853Z" fill="#DDDDDD"/>
<path d="M1024.62 114.729C1024.62 112.119 1024.67 109.201 1024.74 107.467H1024.64C1023.93 110.596 1022.39 115.686 1020.93 120.468H1018.11C1016.99 116.286 1015.41 110.482 1014.73 107.418H1014.64C1014.77 109.218 1014.83 112.363 1014.83 114.989V120.468H1011.82V105.165H1016.74C1017.94 109.169 1019.27 114.178 1019.73 116.448H1019.74C1020.12 114.438 1021.8 109.072 1023.08 105.165H1027.83V120.468H1024.64V114.729H1024.62Z" fill="#2D2D2D"/>
<path d="M1042.02 113.87H1034.71V117.761H1042.78L1042.39 120.468H1031.5V105.165H1042.34V107.872H1034.71V111.147H1042.02V113.854V113.87Z" fill="#2D2D2D"/>
<path d="M956.584 142.354C966.683 139.565 976.329 136.907 986.656 134.054C985.975 138.82 985.797 143.894 984.467 148.628C980.982 161.078 980.528 173.577 982.57 186.254C982.943 188.573 983.219 190.891 983.592 193.728C981.727 194.247 979.912 195.187 978.161 195.089C976.961 195.025 975.34 193.728 974.773 192.561C971.822 186.53 969.018 180.402 966.408 174.209C964.868 170.562 962.971 166.784 962.663 162.958C962.176 157.009 960.669 151.594 957.945 146.374C957.281 145.11 957.005 143.634 956.584 142.354Z" fill="#DDDDDD"/>
<path d="M965.905 151.027L963.587 144.445H965.111L966.083 147.493C966.375 148.417 966.602 149.195 966.764 149.86H966.78C966.91 149.244 967.17 148.433 967.478 147.509L968.499 144.445H969.958L967.575 151.027H965.889H965.905Z" fill="#2D2D2D"/>
<path d="M972.584 145.612H970.59V144.445H976.005V145.612H974.011V151.027H972.584V145.612Z" fill="#2D2D2D"/>
<path d="M988.358 192.577C987.142 182.947 984.646 173.69 986.721 163.818C988.958 153.232 989.995 142.386 991.584 131.67C991.698 130.925 992.119 130.244 992.816 128.444C993.902 130.876 994.697 132.368 995.264 133.94C998.96 144.332 1002.66 154.739 1006.24 165.179C1007.75 169.557 1009.97 173.091 1014.59 174.777C1016.65 175.522 1017.1 180.126 1015.07 181.277C1006.86 185.93 999.22 191.993 989.266 192.787C989.136 192.787 988.99 192.723 988.342 192.561L988.358 192.577Z" fill="#DDDDDD"/>
<path d="M993.092 181.018V174.436H994.859C995.685 175.911 997.193 178.586 997.501 179.3H997.517C997.436 178.619 997.436 177.468 997.436 176.382V174.436H998.733V181.018H997.063C996.35 179.737 994.68 176.673 994.34 175.911H994.324C994.372 176.479 994.389 177.841 994.389 179.024V181.018H993.092Z" fill="#2D2D2D"/>
<path d="M1000.31 174.436H1001.73V176.998H1004.37V174.436H1005.8V181.018H1004.37V178.165H1001.73V181.018H1000.31V174.436Z" fill="#2D2D2D"/>
<path d="M975.34 200.293C989.866 198.072 1004 195.706 1015.66 185.865C1017.65 189.253 1018.84 191.75 1016.81 195.138C1014.8 198.478 1016.19 200.78 1019.73 202.206C1022.22 203.211 1024.56 204.703 1026.86 206.129C1029.83 207.978 1032.65 208.918 1035.4 205.319C1035.11 211.22 1029.58 214.754 1021.74 214.576C1018.58 206.016 1014.78 203.779 1004.97 206.113C996.399 208.156 988.05 211.09 979.604 213.635C978.193 214.057 976.767 214.495 974.692 215.127C974.919 209.761 975.129 204.995 975.34 200.293Z" fill="#DDDDDD"/>
<path d="M1004.07 200.439C1004.07 199.321 1004.08 198.056 1004.12 197.31H1004.07C1003.76 198.656 1003.09 200.845 1002.46 202.903H1001.25C1000.76 201.104 1000.08 198.607 999.803 197.294H999.755C999.819 198.072 999.836 199.418 999.836 200.553V202.903H998.539V196.322H1000.66C1001.18 198.04 1001.75 200.196 1001.94 201.185C1002.11 200.326 1002.82 198.008 1003.37 196.322H1005.41V202.903H1004.03V200.439H1004.07Z" fill="#2D2D2D"/>
<path d="M1008.23 201.396L1007.71 202.92H1006.32L1008.56 196.338H1010.34L1012.67 202.92H1011.18L1010.65 201.396H1008.25H1008.23ZM1010.32 200.228C1009.85 198.834 1009.56 197.959 1009.4 197.359C1009.24 198.007 1008.91 199.045 1008.54 200.228H1010.34H1010.32Z" fill="#2D2D2D"/>
<path d="M1004.42 239.638C996.723 245.507 989.882 253.143 979.393 254.942C978.453 243.189 977.529 231.743 976.556 219.536C984.662 216.91 993.643 214.008 1003.11 210.944C1004.91 216.748 1006.53 221.968 1008.02 226.75C1001.51 230.528 995.296 234.013 989.217 237.725C987.645 238.682 986.056 240.141 985.278 241.746C984.613 243.124 985.099 245.053 985.083 246.739C986.737 246.739 988.617 247.274 990.011 246.674C993.918 244.972 997.615 242.783 1001.42 240.838C1002.38 240.352 1003.42 240.027 1004.41 239.622L1004.42 239.638Z" fill="#DDDDDD"/>
<path d="M991.357 225.988C991.098 227.22 990.174 228.112 988.52 228.112C986.429 228.112 985.44 226.637 985.44 224.756C985.44 222.876 986.461 221.336 988.585 221.336C990.336 221.336 991.195 222.357 991.341 223.459H989.914C989.784 222.957 989.428 222.454 988.536 222.454C987.369 222.454 986.915 223.508 986.915 224.708C986.915 225.826 987.304 226.994 988.585 226.994C989.509 226.994 989.801 226.377 989.93 225.988H991.357Z" fill="#2D2D2D"/>
<path d="M993.902 222.6H991.908V221.433H997.323V222.6H995.329V228.015H993.902V222.6Z" fill="#2D2D2D"/>
<path d="M1012.69 225.68C1011.2 220.963 1009.69 216.229 1007.84 210.393C1010.65 210.652 1013.19 210.296 1014.98 211.285C1016.01 211.852 1016.26 214.657 1016.11 216.391C1015.85 219.504 1015.04 222.552 1014.46 225.632C1013.87 225.632 1013.27 225.664 1012.69 225.68Z" fill="#DDDDDD"/>
<path d="M956.195 247.533C961.706 248.538 966.845 249.398 971.952 250.516C972.844 250.711 974.092 251.975 974.173 252.851C975.827 268.657 977.269 284.479 969.764 299.426C969.407 300.139 968.888 300.788 968.337 301.615C964.673 300.253 960.993 299.167 957.589 297.529C954.265 295.924 953.795 288.321 956.616 285.857C961.593 281.48 962.387 278.594 960.134 272.353C959.437 270.408 958.902 268.203 957.605 266.728C952.32 260.794 954.557 254.488 956.211 247.55L956.195 247.533Z" fill="#DDDDDD"/>
<path d="M960.539 263.437V256.855H962.306C963.133 258.33 964.641 261.005 964.949 261.718H964.965C964.884 261.037 964.884 259.886 964.884 258.8V256.855H966.181V263.437H964.511C963.798 262.156 962.128 259.092 961.787 258.33H961.771C961.82 258.897 961.836 260.259 961.836 261.443V263.437H960.539Z" fill="#2D2D2D"/>
<path d="M969.958 261.329C969.958 262.837 969.472 263.534 968.029 263.534C967.786 263.534 967.364 263.518 967.137 263.453V262.318C967.251 262.334 967.591 262.351 967.786 262.351C968.434 262.351 968.531 261.913 968.531 261.41V256.839H969.958V261.313V261.329Z" fill="#2D2D2D"/>
<path d="M913.072 302.701C922.685 300.334 932.283 297.87 941.961 295.714C943.079 295.471 944.539 296.832 945.754 298.113C941.523 297.497 939.886 299.945 938.621 302.928C935.768 309.656 934.974 316.432 937.859 323.435C938.443 324.862 938.086 326.661 938.167 328.299C936.076 327.942 933.58 328.153 931.991 327.05C930.499 325.997 928.911 323.419 929.17 321.798C930.402 313.708 923.642 312.087 919.151 308.618C917.044 306.981 914.807 305.489 912.634 303.933C912.78 303.528 912.926 303.122 913.072 302.717V302.701Z" fill="#DDDDDD"/>
<path d="M946.84 301.809C948.737 306.689 950.618 311.568 952.531 316.448C954.995 322.787 955.822 323.127 961.885 320.387C962.501 320.112 963.149 319.885 965.03 319.139C964.592 322.349 964.868 325.17 963.798 327.342C961.252 332.53 959.21 337.604 960.118 343.57C960.345 345.094 959.339 346.828 958.902 348.449C958.48 348.417 958.043 348.385 957.621 348.352C957.621 347.12 957.329 345.791 957.67 344.656C959.388 338.868 957.183 333.811 954.93 328.736C954.541 327.861 954.184 326.483 953.536 326.288C945.884 324.035 947.359 316.74 945.56 311.471C944.571 308.553 945.382 305.035 945.382 301.793C945.868 301.793 946.354 301.825 946.84 301.842V301.809Z" fill="#DDDDDD"/>
<path d="M949.045 292.407C953.309 299.734 957.573 307.062 962.128 314.859C961.171 315.378 959.729 316.173 957.816 317.21C954.541 308.699 951.461 300.658 948.381 292.617C948.608 292.536 948.835 292.471 949.062 292.39L949.045 292.407Z" fill="#DDDDDD"/>
<path d="M941.199 322.074C940.713 318.685 940.21 315.281 939.724 311.893C940.356 311.796 940.972 311.698 941.604 311.601C942.155 315.054 942.723 318.507 943.274 321.944C942.577 321.992 941.896 322.025 941.199 322.074Z" fill="#DDDDDD"/>
<path d="M927.225 305.878C927.225 304.76 927.241 303.495 927.273 302.749H927.225C926.917 304.095 926.252 306.284 925.62 308.342H924.404C923.918 306.543 923.237 304.046 922.961 302.733H922.912C922.977 303.511 922.994 304.857 922.994 305.992V308.342H921.697V301.761H923.82C924.339 303.479 924.906 305.635 925.101 306.624C925.263 305.765 925.976 303.447 926.528 301.761H928.57V308.342H927.192V305.878H927.225Z" fill="#2D2D2D"/>
<path d="M930.159 301.777H932.769C934.682 301.777 935.946 303.041 935.946 304.987C935.946 306.932 934.731 308.359 932.72 308.359H930.175V301.777H930.159ZM931.586 307.208H932.655C933.92 307.208 934.471 306.267 934.471 304.987C934.471 303.917 933.952 302.928 932.655 302.928H931.586V307.208Z" fill="#2D2D2D"/>
<path d="M919.378 661.735C918.649 658.509 919.735 654.894 919.557 651.489C919.411 648.312 919.378 644.843 918.098 642.054C913.137 631.274 907.674 620.72 902.421 610.069C896.974 599.062 891.722 587.941 885.967 577.095C884.021 573.448 881.298 570.659 882.822 565.812C885.626 556.863 878.299 549.066 868.004 552.243C867.923 552.908 867.842 553.589 867.745 554.27C867.016 560.106 866.497 560.43 860.547 559.327C856.64 558.598 852.685 558.176 848.794 557.366C847.854 557.171 847.124 556.004 846.281 555.291L844.919 555.437C844.855 556.296 842.504 557.593 841.142 557.674C830.653 558.322 820.148 558.809 809.66 559.149C800.889 559.441 800.889 559.311 797.858 550.849C796.447 551.108 795.264 551.384 794.064 551.562C782.878 553.264 771.692 555.031 760.474 556.588C756.519 557.139 752.482 557.204 748.478 557.431C745.657 557.593 744.863 558.663 746.095 561.435C749.418 569.006 750.05 569.508 758.188 568.357C761.739 567.855 765.224 567.028 768.758 566.396C769.958 566.185 771.384 565.666 772.39 566.071C779.474 568.957 787.661 568.779 793.367 575.766C796.026 579.024 801.797 580.24 806.401 581.18C808.444 581.602 811.248 579.284 813.453 577.808C822.418 571.875 832.696 574.923 839.78 581.116C844.32 585.087 849.232 588.622 853.836 592.528C855.197 593.679 856.851 595.284 857.029 596.857C857.872 603.844 858.359 610.88 858.699 617.916C858.845 620.915 859.883 622.909 862.687 624.011C865.475 625.113 866.708 627.026 866.237 630.171C865.103 637.888 868.118 643.87 874.23 648.506C875.202 649.236 876.694 650.241 876.694 651.133C876.694 655.364 879.644 657.358 882.319 659.757C883.373 660.697 884.232 662.27 884.459 663.664C885.043 667.506 887.474 668.998 890.765 670.473C893.489 671.689 896.115 673.845 897.914 676.244C900.119 679.178 901.805 682.648 903.021 686.133C904.156 689.359 906.117 690.51 908.922 689.392C911.062 688.532 913.672 687.057 914.547 685.144C917.952 677.8 921.324 670.408 919.362 661.751L919.378 661.735Z" fill="#DDDDDD"/>
<path d="M877.715 625.535H888.398V628.242H880.957V631.987H887.928V634.694H880.957V640.822H877.731V625.519L877.715 625.535Z" fill="#2D2D2D"/>
<path d="M890.879 625.535H894.186V638.115H901.805L901.432 640.822H890.879V625.519V625.535Z" fill="#2D2D2D"/>
<path d="M590.497 493.979C589.898 493.882 589.444 493.914 589.119 493.72C579.636 488.078 569.747 488.467 560.069 492.634C552.692 495.811 545.543 494.936 538.183 493.396C534.276 492.569 530.272 492.083 526.43 490.98C523.625 490.186 521.064 488.532 518.308 487.479C514.077 485.857 509.765 484.479 505.517 482.923C502.437 481.804 499.357 480.67 496.358 479.357C491.932 477.427 487.636 475.174 483.162 473.391C480.373 472.288 479.465 470.716 479.709 467.749C480.746 455.769 481.573 443.773 482.481 431.776C482.578 430.528 482.546 429.28 482.659 428.047C483.048 424.108 481.427 422.422 477.326 422.065C460.401 420.558 443.492 418.742 426.568 417.007C425.222 416.878 423.909 416.505 422.434 416.229C422.499 413.279 422.304 410.701 426.503 411.301C465.313 416.764 504.366 414.041 543.322 414.787C556.599 415.03 569.877 415.273 583.137 415.516C585.099 415.548 586.866 415.338 587.239 418.24C588.649 429.198 591.097 440.076 591.648 451.068C592.329 464.426 591.486 477.849 591.259 491.24C591.259 492.147 590.773 493.039 590.497 493.979Z" fill="#DDDDDD"/>
<path d="M534.86 450.63C534.86 454.894 532.298 458.557 527.338 458.557C522.377 458.557 520.026 455.072 520.026 450.695C520.026 446.318 522.799 442.816 527.548 442.816C532.023 442.816 534.86 445.945 534.86 450.63ZM523.431 450.63C523.431 453.613 524.744 455.882 527.451 455.882C530.385 455.882 531.439 453.418 531.439 450.695C531.439 447.793 530.256 445.523 527.403 445.523C524.549 445.523 523.431 447.663 523.431 450.63Z" fill="#2D2D2D"/>
<path d="M537.746 443.043H541.02V449.868C542.025 448.685 545.17 445.248 547.116 443.043H551.071L544.927 449.398L551.298 458.33H547.326L542.625 451.538L541.004 453.078V458.33H537.729V443.027L537.746 443.043Z" fill="#2D2D2D"/>
<path d="M278.104 535.156C285.561 489.618 292.953 444.567 300.443 398.899C339.642 402.774 378.566 406.632 418.121 410.555C417.7 413.473 417.23 416.116 416.97 418.791C414.555 442.816 412.042 466.841 409.854 490.899C409.043 499.832 409.416 499.864 410.551 501.712C409.724 503.447 408.849 504.484 408.768 505.587C408.249 513.855 407.762 522.139 407.535 530.423C407.438 533.827 405.93 534.605 402.899 534.281C388.422 532.708 373.929 531.217 359.436 529.742C351.736 528.947 344.052 528.153 336.335 527.521C334.941 527.407 332.768 527.65 332.201 528.542C329.996 531.93 327.175 531.022 324.16 530.552C315.292 529.191 306.392 527.991 297.525 526.645C294.509 526.191 292.986 527.164 292.289 530.293C290.862 536.777 290.7 536.761 284.231 536.016C282.367 535.805 280.519 535.497 278.12 535.173L278.104 535.156Z" fill="#DDDDDD"/>
<path d="M337.145 479.827V464.523H341.247C343.16 467.96 346.694 474.153 347.391 475.823H347.44C347.261 474.218 347.278 471.575 347.278 469.062V464.523H350.277V479.827H346.386C344.749 476.844 340.825 469.727 340.064 467.96H340.015C340.128 469.306 340.161 472.434 340.161 475.174V479.827H337.145Z" fill="#2D2D2D"/>
<path d="M366.764 474.088C366.764 471.478 366.812 468.544 366.877 466.825H366.78C366.067 469.954 364.527 475.044 363.068 479.827H360.247C359.128 475.644 357.556 469.841 356.875 466.777H356.777C356.907 468.576 356.972 471.721 356.972 474.347V479.827H353.957V464.523H358.885C360.085 468.527 361.414 473.537 361.868 475.806H361.9C362.273 473.796 363.959 468.43 365.24 464.523H369.99V479.827H366.796V474.088H366.764Z" fill="#2D2D2D"/>
<path d="M199.413 378.927C231.593 385.282 263.481 391.572 295.823 397.959C288.365 443.578 280.973 488.759 273.5 534.508C267.631 533.762 262.2 533.13 256.802 532.368C250.641 531.492 244.465 530.714 238.386 529.498C235.37 528.899 232.258 527.845 229.664 526.24C211.475 514.957 193.399 503.463 175.307 492.034C174.253 491.369 173.216 490.672 172.227 489.926C166.699 485.776 166.731 485.776 168.385 479.308C168.822 477.59 169.228 475.774 169.179 474.007C168.952 466.501 170.962 459.725 176.069 454.229C182.31 447.517 182.732 440.433 178.517 432.603C176.507 428.858 176.328 425.373 178.16 420.931C180.008 416.456 179.619 410.944 179.733 405.886C179.879 399.467 180.381 398.932 186.282 401.137C193.383 403.795 194.777 402.92 196.171 395.3C197.128 390.015 198.262 384.779 199.446 378.927H199.413Z" fill="#DDDDDD"/>
<path d="M220.05 457.649L218.851 461.184H215.592L220.78 445.88H224.93L230.345 461.184H226.875L225.611 457.649H220.018H220.05ZM224.93 454.942C223.844 451.716 223.147 449.657 222.79 448.279H222.774C222.401 449.787 221.639 452.186 220.764 454.942H224.946H224.93Z" fill="#2D2D2D"/>
<path d="M231.982 458.752L240.38 448.587H232.355V445.88H244.141V448.571L236.035 458.476H244.578L244.157 461.184H231.982V458.752Z" fill="#2D2D2D"/>
<path d="M52.7649 383.677C55.7316 390.632 57.9364 397.911 60.8058 404.914C61.4867 406.584 63.3996 407.913 64.9883 409.032C68.6359 411.625 72.5915 413.83 76.158 416.537C80.5027 419.845 84.7663 423.314 88.6894 427.107C94.0878 432.327 97.9948 438.942 103.863 443.773C103.961 443.854 104.009 444.016 104.042 444.145C106.538 451.846 111.337 458.817 111.223 467.344C111.191 469.905 112.407 471.137 115.179 471.478C122.312 472.337 129.429 473.423 136.497 474.672C145.283 476.212 154.038 477.995 163.683 479.843C164.024 476.779 164.575 473.131 164.818 469.451C165.11 464.993 165.532 460.746 168.579 457.033C171.027 454.067 173.151 450.776 174.999 447.388C175.988 445.572 176.928 442.978 176.361 441.244C174.107 434.321 172.275 426.945 168.466 420.898C143.808 381.732 118.648 342.873 93.7798 303.836C92.7585 302.231 92.2721 299.653 92.7261 297.837C96.2439 283.766 100.07 269.775 103.782 255.753C106.311 246.172 108.808 236.575 111.418 226.572C88.041 219.407 65.0045 212.355 41.9357 205.286C38.7745 216.472 35.208 226.345 29.0963 234.97C26.9239 238.034 26.0809 240.887 26.4376 244.534C27.1833 252.348 27.4103 260.211 25.1569 267.863C22.9197 275.417 24.1356 282.501 27.0212 289.667C28.5775 293.525 29.3881 297.789 29.8744 301.939C30.5229 307.467 33.0519 309.72 38.4665 308.683C41.9033 308.018 43.0867 309.299 42.9732 313.06C42.9084 315.297 42.8922 317.68 43.6055 319.739C44.7241 322.998 43.9297 324.327 40.3632 324.084C38.6934 323.97 37.0236 323.922 35.3377 323.824C35.0296 324.213 34.7054 324.603 34.3974 324.992C36.5697 328.72 38.5637 332.579 40.9792 336.161C43.3461 339.663 43.7514 342.792 41.1738 346.407C39.3419 348.968 37.8666 351.87 39.3743 355.307C41.2548 359.603 42.8111 364.061 44.8538 368.276L52.8136 383.709L52.7649 383.677Z" fill="#00755B"/>
<path d="M98.0434 382.704C97.4273 385.557 95.2712 387.632 91.4453 387.632C86.5981 387.632 84.2961 384.196 84.2961 379.851C84.2961 375.506 86.6629 371.891 91.5912 371.891C95.6603 371.891 97.6381 374.274 98.0109 376.836H94.7038C94.3796 375.652 93.569 374.485 91.4777 374.485C88.7542 374.485 87.7005 376.933 87.7005 379.721C87.7005 382.299 88.6083 385.039 91.575 385.039C93.7311 385.039 94.412 383.596 94.7038 382.704H98.0271H98.0434Z" fill="#2D2D2D"/>
<path d="M103.474 383.888L102.275 387.422H99.0161L104.204 372.118H108.354L113.768 387.422H110.283L109.018 383.888H103.426H103.474ZM108.354 381.18C107.268 377.954 106.571 375.895 106.214 374.517H106.198C105.825 376.025 105.063 378.424 104.187 381.18H108.37H108.354Z" fill="#2D2D2D"/>
</svg>
