<svg xmlns="http://www.w3.org/2000/svg" width="24" height="24" viewBox="0 0 24 24"><path d="M13.6 21.6c-.2 0-.2 0-.4-.2s-.2-.2-.2-.4v-3.6c-.8-.2-1.4-.6-1.8-1.2-.6-.6-.8-1.2-.8-2v-.8c-1.4 0-2.8-.6-3.8-1.6S5 9.6 5 8c0-1.6.6-3 1.8-4 1.4-1 3-1.4 5.2-1.6.4 0 1 .2 1.6.4.2 0 .4.2.4.4 0 1.4-.4 2.6-1 3.8.6.6 1 1.4 1 2 0 .2 0 .6-.2.8-.2.2-.6.2-.8.2-.2 0-.4-.2-.8-.4-.2-.4-.8-.6-1-.6-.2 0-.6.2-.8.4-.2.2-.4.4-.4.8 0 .6.2 1 .6 1.4.6.2 1.2.4 1.8.4h2c1 0 1.8.4 2.6 1.2.6.6 1 1.4 1 2.4 0 1.4-.6 2.8-1.4 4.2-1.2 1.2-2.2 1.8-3 1.8zM0 12c0 3.4 1.4 6 3.6 8.4 2.2 2.4 5 3.6 8.4 3.6s6.2-1.2 8.4-3.6c2.4-2.2 3.6-5 3.6-8.4s-1.2-6.2-3.6-8.4C18.2 1.2 15.4 0 12 0S5.8 1.2 3.6 3.6C1.2 5.8 0 8.6 0 12z"/></svg>