<svg xmlns="http://www.w3.org/2000/svg" width="24" height="24" viewBox="0 0 24 24"><path d="M12.04 16.02a.86.86 0 00-.63-.66.9.9 0 00-.9.24l-4.77 5.03a.86.86 0 00.07 1.26l.06.05A10.88 10.88 0 0012.5 24a.9.9 0 00.91-.9c0-.05 0-.1-.02-.15l-1.36-6.93zM10.27 11.03c.33.35.89.38 1.26.06.2-.18.3-.43.29-.7L11.09.82a.88.88 0 00-.32-.6.94.94 0 00-.68-.22C7.69.2 5.4 1.17 3.65 2.75A.86.86 0 003.6 4l6.67 7.04zM22.3 15.12a.94.94 0 00-.67-.35l-7.15-.46a.9.9 0 00-.83.43.81.81 0 00.02.9l3.94 5.78a.96.96 0 001.38.2 10.02 10.02 0 003.5-5.8.85.85 0 00-.18-.7zM14.17 12.82c.07 0 .15-.01.22-.03l7.03-1.71a.88.88 0 00.62-1.21 10.3 10.3 0 00-4.68-4.95.95.95 0 00-1.26.35l-.05.08-2.7 6.29c-.13.3-.07.64.15.88.17.2.41.3.67.3z"/><g><path d="M22.3 15.12a.94.94 0 00-.67-.35l-7.15-.46a.9.9 0 00-.83.43.81.81 0 00.02.9l3.94 5.78a.96.96 0 001.38.2 10.02 10.02 0 003.5-5.8.85.85 0 00-.18-.7z"/></g><g><path d="M14.17 12.82c.07 0 .15-.01.22-.03l7.03-1.71a.88.88 0 00.62-1.21 10.3 10.3 0 00-4.68-4.95.95.95 0 00-1.26.35l-.05.08-2.7 6.29c-.13.3-.07.64.15.88.17.2.41.3.67.3z"/></g><g><path d="M10 13.77a.85.85 0 00-.45-.78L3.6 9.7a.95.95 0 00-1.32.43 9.7 9.7 0 00-.33 6.67c.14.47.66.74 1.15.6l.13-.05 6.26-2.83c.3-.14.5-.42.52-.74z"/></g></svg>