<svg width="19" height="19" viewBox="0 0 19 19" fill="none" xmlns="http://www.w3.org/2000/svg">
<path d="M10.5334 19H7.25646C7.02503 19 6.83064 18.829 6.79361 18.601L6.45111 16.0835C5.86793 15.846 5.36807 15.523 4.88671 15.143L2.58177 16.1025C2.37812 16.1785 2.12818 16.1025 2.0171 15.8935L0.165741 12.6065C0.0454029 12.3975 0.100944 12.141 0.276823 11.9985L2.23001 10.4215L2.16521 9.5L2.23001 8.55L0.276823 7.0015C0.100944 6.859 0.0454029 6.6025 0.165741 6.3935L2.0171 3.1065C2.12818 2.8975 2.37812 2.812 2.58177 2.8975L4.88671 3.8475C5.36807 3.477 5.86793 3.154 6.45111 2.9165L6.79361 0.399C6.83064 0.171 7.02503 0 7.25646 0H10.9592C11.1906 0 11.385 0.171 11.422 0.399L11.7645 2.9165C12.3477 3.154 12.8476 3.477 13.3289 3.8475L15.6339 2.8975C15.8375 2.812 16.0874 2.8975 16.1985 3.1065L18.0499 6.3935C18.1702 6.6025 18.1147 6.859 17.9388 7.0015L15.9856 8.55L16.0504 9.5V9.6805C15.5876 9.5665 15.1247 9.5 14.6619 9.5C14.5045 9.5 14.3472 9.5 14.1991 9.5285C14.1991 8.9395 14.1065 8.3505 13.9214 7.79L15.8745 6.3175L15.1803 5.0825L12.9494 6.0705C12.2366 5.225 11.2554 4.617 10.1446 4.389L9.80208 1.9H8.41356L8.07105 4.3795C6.96024 4.617 5.97902 5.225 5.26624 6.0705L3.03535 5.0825L2.34109 6.3175L4.29428 7.79C3.924 8.9015 3.924 10.108 4.29428 11.21L2.33183 12.692L3.02609 13.927L5.2755 12.939C5.98827 13.775 6.96024 14.383 8.0618 14.611L8.4043 17.1H9.43181C9.67248 17.8125 10.0335 18.449 10.5334 19ZM9.44106 13.262C9.32998 13.3 9.2189 13.3 9.10782 13.3C7.06206 13.3 5.40509 11.5995 5.40509 9.5C5.40509 7.4005 7.06206 5.7 9.10782 5.7C11.1536 5.7 12.8105 7.4005 12.8105 9.5C12.8105 9.614 12.8105 9.728 12.7735 9.842C11.2276 10.4215 10.0057 11.6755 9.44106 13.262ZM10.9592 9.5C10.9592 8.455 10.1353 7.6 9.10782 7.6C8.08031 7.6 7.25646 8.455 7.25646 9.5C7.25646 10.545 8.08957 11.4 9.10782 11.4C10.1261 11.4 10.9592 10.5545 10.9592 9.5ZM15.5876 12.35H17.4389V18.05H15.5876M11.8849 12.35H13.7362V18.05H11.8849V12.35Z" fill="black"/>
</svg>
