<svg width="21" height="19" viewBox="0 0 21 19" fill="none" xmlns="http://www.w3.org/2000/svg">
<path d="M17.4491 12.3877C17.8122 11.4983 18.0094 10.5463 18.0094 9.5C18.0094 8.7467 17.8952 8.02478 17.6981 7.35518C17.0237 7.51211 16.3182 7.59581 15.5815 7.59581C12.4067 7.59581 9.59498 6.01597 7.88305 3.57819C6.95965 5.83811 5.19584 7.67952 2.97553 8.68392C2.93402 8.94548 2.93402 9.22797 2.93402 9.5C2.93402 11.5173 3.72872 13.452 5.14328 14.8785C6.55784 16.3049 8.47639 17.1063 10.4769 17.1063C11.5663 17.1063 12.6142 16.8656 13.5583 16.4367C14.1497 17.5771 14.4195 18.1421 14.3987 18.1421C12.6972 18.7175 11.3795 19 10.4769 19C7.96605 19 5.56935 18.0061 3.80555 16.217C2.72652 15.1289 1.92762 13.8001 1.48148 12.3563H0.101562V7.59581H1.23247C2.104 3.26432 5.91174 0 10.4769 0C12.967 0 15.3637 0.993942 17.1378 2.78304C18.4555 4.10132 19.3374 5.78579 19.7005 7.59581H20.8522V12.2935V12.3144V12.3563H20.7899L17.0963 15.7775L11.5974 15.1498V13.4025H16.6087L17.4491 12.3877ZM7.64442 9.25936C7.95568 9.25936 8.25656 9.38491 8.47444 9.61509C8.69232 9.8348 8.81683 10.1382 8.81683 10.4521C8.81683 10.766 8.69232 11.0694 8.47444 11.2891C8.25656 11.5088 7.95568 11.6344 7.64442 11.6344C6.99077 11.6344 6.46163 11.1112 6.46163 10.4521C6.46163 9.79295 6.99077 9.25936 7.64442 9.25936ZM13.299 9.25936C13.9526 9.25936 14.4714 9.79295 14.4714 10.4521C14.4714 11.1112 13.9526 11.6344 13.299 11.6344C12.6453 11.6344 12.1162 11.1112 12.1162 10.4521C12.1162 10.1358 12.2408 9.83238 12.4626 9.6087C12.6844 9.38502 12.9853 9.25936 13.299 9.25936Z" fill="black"/>
</svg>
