<svg width="20" height="20" viewBox="0 0 20 20" fill="none" xmlns="http://www.w3.org/2000/svg">
<path d="M14.5956 11.869H3.73094L0.109375 15.5211V0.913003C0.109375 0.67086 0.204764 0.438634 0.374558 0.267412C0.544351 0.0961911 0.774641 0 1.01477 0H14.5956C14.8357 0 15.066 0.0961911 15.2358 0.267412C15.4056 0.438634 15.501 0.67086 15.501 0.913003V10.956C15.501 11.1982 15.4056 11.4304 15.2358 11.6016C15.066 11.7729 14.8357 11.869 14.5956 11.869ZM19.1226 6.39102V19.1731L15.501 15.5211H5.54172C5.30159 15.5211 5.0713 15.4249 4.90151 15.2536C4.73172 15.0824 4.63633 14.8502 4.63633 14.6081V13.6951H17.3118V5.47802H18.2172C18.4573 5.47802 18.6876 5.57421 18.8574 5.74543C19.0272 5.91665 19.1226 6.14888 19.1226 6.39102ZM5.71374 1.82601C4.92605 1.82601 4.29228 2.00861 3.80337 2.36468C3.33257 2.73901 3.09716 3.25942 3.10622 3.98069L3.11527 4.00808H4.86268C4.87173 3.73418 4.95322 3.52419 5.11619 3.37811C5.27916 3.24116 5.47834 3.16812 5.71374 3.16812C5.99441 3.16812 6.22982 3.25942 6.39279 3.42376C6.55576 3.59723 6.62819 3.83461 6.62819 4.10852C6.62819 4.40068 6.56481 4.64719 6.41995 4.85718C6.29319 5.06717 6.10306 5.24977 5.86766 5.39585C5.40591 5.70627 5.08902 5.98017 4.917 6.22668C4.73592 6.46406 4.63633 6.84753 4.63633 7.30403H6.44711C6.44711 7.021 6.48333 6.79275 6.56481 6.6284C6.6463 6.46406 6.80021 6.29972 7.02656 6.15364C7.43399 5.93452 7.76898 5.66975 8.03154 5.30455C8.29411 4.93935 8.42991 4.56502 8.42991 4.10852C8.42991 3.41463 8.18546 2.8577 7.69655 2.44685C7.21669 2.036 6.55576 1.82601 5.71374 1.82601ZM4.63633 8.21703V10.043H6.44711V8.21703H4.63633ZM10.0687 10.043H11.8795V8.21703H10.0687V10.043ZM10.0687 1.82601V7.30403H11.8795V1.82601H10.0687Z" fill="black"/>
</svg>
