<svg width="19" height="20" viewBox="0 0 19 20" fill="none" xmlns="http://www.w3.org/2000/svg">
<path d="M10.067 0.0125429C4.56205 -0.229727 0 3.06921 0 7.17023C0 7.85412 0.125913 8.516 0.36546 9.1432C0.370071 9.15243 0.373128 9.16627 0.38235 9.18486C0.386961 9.19409 0.390017 9.20569 0.394628 9.21967C0.405387 9.24749 0.417666 9.27649 0.428407 9.30313C0.42687 9.30431 0.428407 9.30431 0.428407 9.30655C0.783126 10.2188 2.68567 14.5205 8.65278 19.7088C9.09816 20.0971 9.90125 20.0971 10.348 19.7088C16.3151 14.5205 18.2177 10.2188 18.5725 9.30655C18.5725 9.30537 18.574 9.30537 18.5725 9.30313C18.5863 9.27069 18.5969 9.24393 18.6062 9.21967C18.6109 9.20569 18.6139 9.19409 18.6184 9.18486C18.6261 9.16627 18.6308 9.15243 18.6353 9.1432C18.8626 8.54382 18.9885 7.91451 18.9993 7.26305C19.0606 3.59315 14.9224 0.225819 10.0701 0.0125429H10.067ZM9.49883 10.1041C7.35068 10.1041 5.61089 8.79077 5.61089 7.16918C5.61089 5.54747 7.35068 4.23763 9.49883 4.23763C11.6472 4.23763 13.387 5.55095 13.387 7.16918C13.387 8.78734 11.6472 10.1041 9.49883 10.1041Z" fill="black"/>
<path d="M16.2646 7.41957C16.2646 10.6521 13.15 13.2728 9.30808 13.2728C5.466 13.2728 2.35156 10.6521 2.35156 7.41957C2.35156 4.18697 5.466 1.56641 9.30808 1.56641C13.15 1.56641 16.2646 4.18697 16.2646 7.41957Z" fill="white"/>
<path d="M14.0686 7.41926C14.0686 9.63336 11.9354 11.4282 9.30372 11.4282C6.67227 11.4282 4.53906 9.63336 4.53906 7.41926C4.53906 5.20506 6.67227 3.41016 9.30372 3.41016C11.9354 3.41016 14.0686 5.20506 14.0686 7.41926Z" fill="black"/>
<path d="M12.2607 3.65039L13.8105 4.95441L6.33109 11.2477L4.78125 9.94363L12.2607 3.65039Z" fill="white"/>
</svg>
