<svg width="19" height="18" viewBox="0 0 19 18" fill="none" xmlns="http://www.w3.org/2000/svg">
<path d="M9.10782 0C7.9251 0 6.75396 0.232792 5.66127 0.685084C4.56858 1.13738 3.57574 1.80031 2.73943 2.63604C1.05043 4.32387 0.101563 6.61305 0.101562 9C0.101563 11.3869 1.05043 13.6761 2.73943 15.364C3.57574 16.1997 4.56858 16.8626 5.66127 17.3149C6.75396 17.7672 7.9251 18 9.10782 18C11.4964 18 13.7872 17.0518 15.4762 15.364C17.1652 13.6761 18.1141 11.3869 18.1141 9C18.1141 7.8181 17.8811 6.64778 17.4285 5.55585C16.9759 4.46392 16.3125 3.47177 15.4762 2.63604C14.6399 1.80031 13.6471 1.13738 12.5544 0.685084C11.4617 0.232792 10.2905 0 9.10782 0ZM4.66773 14.652C5.055 13.842 7.41464 13.05 9.10782 13.05C10.801 13.05 13.1606 13.842 13.5479 14.652C12.323 15.624 10.783 16.2 9.10782 16.2C7.43265 16.2 5.89258 15.624 4.66773 14.652ZM14.8358 13.347C13.5479 11.781 10.4227 11.25 9.10782 11.25C7.7929 11.25 4.66773 11.781 3.37984 13.347C2.4612 12.15 1.90281 10.638 1.90281 9C1.90281 5.031 5.13606 1.8 9.10782 1.8C13.0796 1.8 16.3128 5.031 16.3128 9C16.3128 10.638 15.7544 12.15 14.8358 13.347ZM9.10782 3.6C7.3606 3.6 5.95563 5.004 5.95563 6.75C5.95563 8.496 7.3606 9.9 9.10782 9.9C10.855 9.9 12.26 8.496 12.26 6.75C12.26 5.004 10.855 3.6 9.10782 3.6ZM9.10782 8.1C8.74953 8.1 8.40591 7.95777 8.15256 7.70459C7.89921 7.45142 7.75688 7.10804 7.75688 6.75C7.75688 6.39196 7.89921 6.04858 8.15256 5.79541C8.40591 5.54223 8.74953 5.4 9.10782 5.4C9.46611 5.4 9.80972 5.54223 10.0631 5.79541C10.3164 6.04858 10.4588 6.39196 10.4588 6.75C10.4588 7.10804 10.3164 7.45142 10.0631 7.70459C9.80972 7.95777 9.46611 8.1 9.10782 8.1Z" fill="black"/>
</svg>
