<svg width="17" height="16" viewBox="0 0 17 16" fill="none" xmlns="http://www.w3.org/2000/svg">
<path fill-rule="evenodd" clip-rule="evenodd" d="M1.96545 5.65154H5.69322C5.94631 5.65154 6.1592 5.45293 6.1592 5.21681V1.73894C6.1592 1.50281 5.94631 1.3042 5.69322 1.3042H1.96545C1.71236 1.3042 1.49948 1.50281 1.49948 1.73894V5.21681C1.49948 5.45293 1.71236 5.65154 1.96545 5.65154ZM5.69322 6.95574H1.96545C0.940312 6.95574 0.101562 6.17322 0.101562 5.21681V1.73894C0.101562 0.782521 0.940312 0 1.96545 0H5.69322C6.71836 0 7.55711 0.782521 7.55711 1.73894V5.21681C7.55711 6.17322 6.71836 6.95574 5.69322 6.95574Z" fill="#141417"/>
<path fill-rule="evenodd" clip-rule="evenodd" d="M1.96545 14.3469H5.69323C5.94632 14.3469 6.1592 14.1482 6.1592 13.9121V10.4342C6.1592 10.1981 5.94632 9.99951 5.69323 9.99951H1.96545C1.71236 9.99951 1.49948 10.1981 1.49948 10.4342V13.9121C1.49948 14.1482 1.71236 14.3469 1.96545 14.3469ZM5.69323 15.6511H1.96545C0.940312 15.6511 0.101562 14.8685 0.101562 13.9121V10.4342C0.101562 9.47783 0.940312 8.69531 1.96545 8.69531H5.69323C6.71836 8.69531 7.55711 9.47783 7.55711 10.4342V13.9121C7.55711 14.8685 6.71836 15.6511 5.69323 15.6511Z" fill="#141417"/>
<path fill-rule="evenodd" clip-rule="evenodd" d="M10.8198 1.73894V5.21681C10.8198 5.45293 11.0327 5.65154 11.2858 5.65154H15.0135C15.2666 5.65154 15.4795 5.45293 15.4795 5.21681V1.73894C15.4795 1.50281 15.2666 1.3042 15.0135 1.3042H11.2858C11.0327 1.3042 10.8198 1.50281 10.8198 1.73894ZM9.42188 5.21681V1.73894C9.42188 0.782521 10.2606 0 11.2858 0H15.0135C16.0387 0 16.8774 0.782521 16.8774 1.73894V5.21681C16.8774 6.17322 16.0387 6.95574 15.0135 6.95574H11.2858C10.2606 6.95574 9.42188 6.17322 9.42188 5.21681Z" fill="#141417"/>
<path fill-rule="evenodd" clip-rule="evenodd" d="M11.2858 14.3469H15.0135C15.2666 14.3469 15.4795 14.1482 15.4795 13.9121V10.4342C15.4795 10.1981 15.2666 9.99951 15.0135 9.99951H11.2858C11.0327 9.99951 10.8198 10.1981 10.8198 10.4342V13.9121C10.8198 14.1482 11.0327 14.3469 11.2858 14.3469ZM15.0135 15.6511H11.2858C10.2606 15.6511 9.42188 14.8685 9.42188 13.9121V10.4342C9.42188 9.47783 10.2606 8.69531 11.2858 8.69531H15.0135C16.0387 8.69531 16.8774 9.47783 16.8774 10.4342V13.9121C16.8774 14.8685 16.0387 15.6511 15.0135 15.6511Z" fill="#141417"/>
</svg>
