<svg width="19" height="22" viewBox="0 0 19 22" fill="none" xmlns="http://www.w3.org/2000/svg">
<path d="M18.0619 10C18.0619 15.55 14.2303 20.74 9.08171 22C3.93309 20.74 0.101562 15.55 0.101562 10V4L9.08171 0L18.0619 4V10ZM9.08171 20C12.8234 19 16.0663 14.54 16.0663 10.22V5.3L9.08171 2.18L2.09715 5.3V10.22C2.09715 14.54 5.33998 19 9.08171 20ZM9.08171 7.89C10.6782 7.89 11.9653 9.18 11.9653 10.78C11.9653 12.38 10.6782 13.67 9.08171 13.67C7.48524 13.67 6.19809 12.37 6.19809 10.78C6.19809 9.19 7.49522 7.89 9.08171 7.89ZM9.08171 5L10.4587 7C10.0396 6.82 9.58061 6.73 9.08171 6.73C8.58281 6.73 8.13381 6.82 7.70476 7L9.08171 5ZM4.09274 7.89L6.48745 7.69C6.1482 8 5.8289 8.34 5.58943 8.76C5.33998 9.18 5.19031 9.62 5.09053 10.08L4.09274 7.89ZM4.09274 13.67L5.12047 11.5C5.20029 11.93 5.35994 12.38 5.58943 12.8C5.83888 13.23 6.1482 13.59 6.48745 13.88L4.09274 13.67ZM14.0707 7.89L13.0729 10.08C12.9731 9.62 12.8135 9.18 12.574 8.76C12.3345 8.34 12.0252 8 11.676 7.68L14.0707 7.89ZM14.0707 13.67L11.676 13.87C12.0152 13.58 12.3245 13.22 12.574 12.8C12.8135 12.38 12.9631 11.93 13.043 11.5L14.0707 13.67ZM9.08171 16.55L7.69478 14.57C8.12383 14.72 8.58281 14.82 9.08171 14.82C9.58061 14.82 10.0296 14.72 10.4487 14.57L9.08171 16.55Z" fill="black"/>
</svg>
