<svg width="17" height="17" viewBox="0 0 17 17" fill="none" xmlns="http://www.w3.org/2000/svg">
<path d="M8.87168 0L5.68539 3.01227H7.27853V6.02453H10.4648V3.01227H12.058M0.109375 1.50613V3.01227H1.70252L4.57018 8.73557L3.45498 10.5429C3.37532 10.7688 3.29567 10.9948 3.29567 11.296C3.29567 12.1244 4.01258 12.8021 4.88881 12.8021H14.4477V11.296H5.20744C5.12779 11.296 5.04813 11.2207 5.04813 11.1454V11.0701L5.76504 9.78986H11.6597C12.2173 9.78986 12.7749 9.48864 13.0139 9.0368L16.1205 3.76533L14.7663 3.01227L11.6597 8.28373H6.08367L2.73807 1.50613M4.88881 13.5552C4.01258 13.5552 3.29567 14.233 3.29567 15.0613C3.29567 15.8897 4.01258 16.5675 4.88881 16.5675C5.76504 16.5675 6.48196 15.8897 6.48196 15.0613C6.48196 14.233 5.76504 13.5552 4.88881 13.5552ZM12.8545 13.5552C11.9783 13.5552 11.2614 14.233 11.2614 15.0613C11.2614 15.8897 11.9783 16.5675 12.8545 16.5675C13.7308 16.5675 14.4477 15.8897 14.4477 15.0613C14.4477 14.233 13.7308 13.5552 12.8545 13.5552Z" fill="black"/>
</svg>
