<svg width="17" height="21" viewBox="0 0 17 21" fill="none" xmlns="http://www.w3.org/2000/svg">
<path d="M4.11215 0C1.90062 0 0.109375 1.9647 0.109375 4.39038V12.0736C0.109375 13.2809 1.01 14.2687 2.11076 14.2687H5.11285V18.6591C5.11285 19.8665 6.01347 20.8543 7.11424 20.8543H9.11563C10.2164 20.8543 11.117 19.8665 11.117 18.6591V14.2687H14.1191C15.2199 14.2687 16.1205 13.2809 16.1205 12.0736V0H4.11215ZM4.11215 2.19519H8.11493V4.39038H10.1163V2.19519H11.117V6.58557H13.1184V2.19519H14.1191V7.68317H2.11076V4.39038C2.11076 3.18303 3.01139 2.19519 4.11215 2.19519ZM2.11076 12.0736V9.87836H14.1191V12.0736H2.11076Z" fill="black"/>
</svg>
