<svg width="30" height="30" viewBox="0 0 30 30" fill="none" xmlns="http://www.w3.org/2000/svg">
<g clip-path="url(#clip0_1468_27786)">
<path d="M23.6179 6.38252C21.9134 4.67806 19.7418 3.51732 17.3777 3.04706C15.0135 2.5768 12.563 2.81815 10.336 3.7406C8.10908 4.66304 6.20565 6.22514 4.86647 8.22937C3.52729 10.2336 2.8125 12.5899 2.8125 15.0004C2.8125 17.4108 3.52729 19.7672 4.86647 21.7714C6.20565 23.7756 8.10908 25.3377 10.3361 26.2602C12.563 27.1826 15.0135 27.424 17.3777 26.9537C19.7418 26.4834 21.9134 25.3227 23.6179 23.6182C25.9003 21.331 27.1822 18.2317 27.1822 15.0004C27.1822 11.7691 25.9003 8.66979 23.6179 6.38252ZM16.9887 19.6408C16.8129 19.8166 16.5745 19.9154 16.3258 19.9154C16.0772 19.9154 15.8387 19.8166 15.6629 19.6408C15.4871 19.465 15.3883 19.2265 15.3883 18.9779C15.3883 18.7292 15.4871 18.4908 15.6629 18.3149L18.0403 15.9376L9.6967 15.9384C9.57352 15.9384 9.45154 15.9141 9.33774 15.867C9.22393 15.8199 9.12052 15.7508 9.03342 15.6637C8.94632 15.5766 8.87722 15.4732 8.83008 15.3593C8.78294 15.2455 8.75868 15.1236 8.75868 15.0004C8.75868 14.8772 8.78294 14.7552 8.83008 14.6414C8.87722 14.5276 8.94632 14.4242 9.03342 14.3371C9.12053 14.25 9.22393 14.1809 9.33774 14.1338C9.45154 14.0866 9.57352 14.0624 9.6967 14.0624L18.0403 14.0632L15.6629 11.6858C15.4871 11.51 15.3883 11.2715 15.3883 11.0229C15.3883 10.7743 15.4871 10.5358 15.6629 10.36C15.8387 10.1842 16.0772 10.0854 16.3258 10.0854C16.5745 10.0854 16.8129 10.1842 16.9887 10.36L20.9662 14.3375C21.142 14.5133 21.2408 14.7517 21.2408 15.0004C21.2408 15.249 21.142 15.4875 20.9662 15.6633L16.9887 19.6408Z" fill="#BD9A5F"/>
</g>
<defs>
<clipPath id="clip0_1468_27786">
<rect width="30" height="30" fill="white"/>
</clipPath>
</defs>
</svg>
