<svg width="46" height="45" viewBox="0 0 46 45" fill="none" xmlns="http://www.w3.org/2000/svg">
<g clip-path="url(#clip0_918_22199)">
<path d="M23 4.21875C19.3843 4.21875 15.8498 5.29093 12.8435 7.2997C9.83715 9.30847 7.494 12.1636 6.11034 15.5041C4.72667 18.8445 4.36464 22.5203 5.07003 26.0665C5.77541 29.6127 7.51653 32.8701 10.0732 35.4268C12.6299 37.9835 15.8873 39.7246 19.4335 40.43C22.9797 41.1354 26.6555 40.7733 29.9959 39.3897C33.3364 38.006 36.1915 35.6629 38.2003 32.6565C40.2091 29.6502 41.2813 26.1157 41.2813 22.5C41.2761 17.6531 39.3484 13.0061 35.9212 9.57886C32.4939 6.15157 27.8469 4.22387 23 4.21875ZM31.0262 19.2762L21.1824 29.1199C21.0518 29.2507 20.8967 29.3544 20.726 29.4252C20.5553 29.4959 20.3723 29.5324 20.1875 29.5324C20.0027 29.5324 19.8197 29.4959 19.649 29.4252C19.4783 29.3544 19.3232 29.2507 19.1926 29.1199L14.9738 24.9012C14.71 24.6373 14.5617 24.2794 14.5617 23.9062C14.5617 23.5331 14.71 23.1752 14.9738 22.9113C15.2377 22.6475 15.5956 22.4992 15.9688 22.4992C16.3419 22.4992 16.6998 22.6475 16.9637 22.9113L20.1875 26.1369L29.0363 17.2863C29.167 17.1557 29.3221 17.052 29.4928 16.9813C29.6635 16.9106 29.8465 16.8742 30.0313 16.8742C30.216 16.8742 30.399 16.9106 30.5697 16.9813C30.7404 17.052 30.8955 17.1557 31.0262 17.2863C31.1568 17.417 31.2605 17.5721 31.3312 17.7428C31.4019 17.9135 31.4383 18.0965 31.4383 18.2812C31.4383 18.466 31.4019 18.649 31.3312 18.8197C31.2605 18.9904 31.1568 19.1455 31.0262 19.2762Z" fill="white"/>
</g>
<defs>
<clipPath id="clip0_918_22199">
<rect width="45" height="45" fill="white" transform="translate(0.5)"/>
</clipPath>
</defs>
</svg>
