<svg xmlns="http://www.w3.org/2000/svg" width="24" height="24" viewBox="0 0 24 24"><path d="M21.58 16.85a4.74 4.74 0 01-4.73 4.74h-9.7a4.74 4.74 0 01-4.74-4.74v-9.7a4.74 4.74 0 014.74-4.74h9.7a4.73 4.73 0 014.73 4.74v9.7zM16.85 0h-9.7A7.16 7.16 0 000 7.15v9.7C0 20.8 3.2 24 7.15 24h9.7c3.94 0 7.15-3.2 7.15-7.15v-9.7C24 3.21 20.8 0 16.85 0z"/><path d="M12 15.8a3.79 3.79 0 110-7.59 3.79 3.79 0 010 7.58zm0-10a6.21 6.21 0 10.01 12.42A6.21 6.21 0 0012 5.79zM16.73 5.84a1.49 1.49 0 012.97 0 1.48 1.48 0 11-2.97 0z"/></svg>