<svg xmlns="http://www.w3.org/2000/svg" width="24" height="24" viewBox="0 0 24 24"><path d="M5.59 7.71H.77a.39.39 0 00-.39.39V23.6c0 .22.18.39.39.39h4.82c.21 0 .38-.17.38-.39V8.1a.39.39 0 00-.38-.39zM3.18 0a3.18 3.18 0 10.01 6.37A3.18 3.18 0 003.18 0zM17.84 7.33c-1.93 0-3.36.83-4.23 1.78V8.1a.39.39 0 00-.39-.39H8.61a.39.39 0 00-.39.39V23.6c0 .22.17.39.39.39h4.8c.22 0 .4-.17.4-.39v-7.67c0-2.59.7-3.6 2.5-3.6 1.95 0 2.1 1.62 2.1 3.73v7.54c0 .22.18.39.4.39h4.8c.22 0 .39-.17.39-.39v-8.5c0-3.85-.73-7.78-6.16-7.78z"/></svg>