<svg xmlns="http://www.w3.org/2000/svg" width="24" height="24" viewBox="0 0 24 24"><path d="M18.98 2.46A9.2 9.2 0 0012.55 0C8.73 0 6.38 1.56 5.08 2.88a8.5 8.5 0 00-2.51 5.9c0 2.66 1.12 4.71 2.99 5.48.12.05.25.07.37.07.4 0 .71-.26.82-.67l.27-1.08c.14-.5.03-.74-.27-1.1-.54-.63-.8-1.39-.8-2.38a6 6 0 016.23-6.04c3.2 0 5.2 1.83 5.2 4.76 0 1.85-.4 3.56-1.13 4.82-.5.88-1.39 1.93-2.74 1.93-.6 0-1.12-.24-1.45-.67-.32-.4-.42-.9-.3-1.44.15-.6.34-1.24.53-1.85.35-1.11.67-2.16.67-3 0-1.44-.88-2.4-2.2-2.4C9.1 5.2 7.8 6.9 7.8 9.07c0 1.06.28 1.85.4 2.16-.2.89-1.45 6.19-1.7 7.18-.13.59-.95 5.2.41 5.56 1.54.42 2.91-4.07 3.05-4.58.12-.4.51-1.97.75-2.93.75.72 1.94 1.2 3.1 1.2a6.9 6.9 0 005.55-2.77 11.13 11.13 0 002.08-6.81c0-2.08-.89-4.13-2.45-5.62z"/></svg>