<svg xmlns="http://www.w3.org/2000/svg" width="24" height="24" viewBox="0 0 24 24"><path d="M23.46 4.44c-.38.17-.77.31-1.17.43.47-.53.83-1.16 1.05-1.84a.39.39 0 00-.57-.45c-.84.5-1.74.86-2.7 1.07A5.16 5.16 0 0011.35 8c-3.52-.32-6.8-2.05-9.05-4.81a.39.39 0 00-.63.05 5.15 5.15 0 00.53 5.93 4.48 4.48 0 01-.7-.3.39.39 0 00-.57.32v.07c0 1.85 1 3.52 2.52 4.43a4.74 4.74 0 01-.39-.06.39.39 0 00-.44.5A5.15 5.15 0 006.4 17.6 9.12 9.12 0 01.43 18.9a.39.39 0 00-.25.71 13.9 13.9 0 007.51 2.2c5.25 0 8.53-2.47 10.36-4.54a14.42 14.42 0 003.58-9.83c.9-.67 1.67-1.5 2.3-2.44a.39.39 0 00-.47-.57z"/></svg>